<svg xmlns="http://www.w3.org/2000/svg" xmlns:xlink="http://www.w3.org/1999/xlink" width="113" zoomAndPan="magnify" viewBox="0 0 84.75 56.999997" height="76" preserveAspectRatio="xMidYMid meet" version="1.0"><defs><g/><clipPath id="2e44c2ca6d"><path d="M 0 0.0820312 L 84.5 0.0820312 L 84.5 56.914062 L 0 56.914062 Z M 0 0.0820312 " clip-rule="nonzero"/></clipPath><clipPath id="53c9526008"><path d="M 0 0.0820312 L 84.214844 0.0820312 L 84.214844 56.722656 L 0 56.722656 Z M 0 0.0820312 " clip-rule="nonzero"/></clipPath><clipPath id="32f2bf1209"><path d="M 1 10 L 84.5 10 L 84.5 41 L 1 41 Z M 1 10 " clip-rule="nonzero"/></clipPath><clipPath id="c8415e341c"><path d="M 8 0.859375 L 32 0.859375 L 32 30.765625 L 8 30.765625 Z M 8 0.859375 " clip-rule="nonzero"/></clipPath><clipPath id="277ea46bc1"><path d="M 0.335938 7 L 13 7 L 13 18 L 0.335938 18 Z M 0.335938 7 " clip-rule="nonzero"/></clipPath><clipPath id="f2a83cd679"><path d="M 25 11 L 83.5 11 L 83.5 25 L 25 25 Z M 25 11 " clip-rule="nonzero"/></clipPath><clipPath id="cd819f05cb"><path d="M 1 0.140625 L 9 0.140625 L 9 11 L 1 11 Z M 1 0.140625 " clip-rule="nonzero"/></clipPath><clipPath id="b46fa41149"><path d="M 8 0.140625 L 16 0.140625 L 16 10 L 8 10 Z M 8 0.140625 " clip-rule="nonzero"/></clipPath><clipPath id="5fc7e464d9"><path d="M 16 0.140625 L 24 0.140625 L 24 11 L 16 11 Z M 16 0.140625 " clip-rule="nonzero"/></clipPath><clipPath id="af0b1e92d4"><path d="M 24 0.140625 L 32 0.140625 L 32 10 L 24 10 Z M 24 0.140625 " clip-rule="nonzero"/></clipPath><clipPath id="0d3cdda5bb"><path d="M 32 0.140625 L 39 0.140625 L 39 11 L 32 11 Z M 32 0.140625 " clip-rule="nonzero"/></clipPath><clipPath id="a858deaca9"><path d="M 39 0.140625 L 48 0.140625 L 48 10 L 39 10 Z M 39 0.140625 " clip-rule="nonzero"/></clipPath><clipPath id="4d452e5c49"><path d="M 48 0.140625 L 57 0.140625 L 57 10 L 48 10 Z M 48 0.140625 " clip-rule="nonzero"/></clipPath><clipPath id="ca0526be2a"><rect x="0" width="59" y="0" height="14"/></clipPath><clipPath id="11fccfefb5"><path d="M 0.519531 2 L 5 2 L 5 8 L 0.519531 8 Z M 0.519531 2 " clip-rule="nonzero"/></clipPath><clipPath id="549be090ca"><rect x="0" width="55" y="0" height="10"/></clipPath><clipPath id="a8dc7ae289"><rect x="0" width="84" y="0" height="31"/></clipPath><clipPath id="93b86409e2"><rect x="0" width="85" y="0" height="57"/></clipPath></defs><g clip-path="url(#2e44c2ca6d)"><path fill="#ffffff" d="M 0 0.0820312 L 84.5 0.0820312 L 84.5 56.917969 L 0 56.917969 Z M 0 0.0820312 " fill-opacity="1" fill-rule="nonzero"/><g transform="matrix(1, 0, 0, 1, 0, -0.0000000000000102)"><g clip-path="url(#93b86409e2)"><g clip-path="url(#53c9526008)"><path fill="#ffffff" d="M 0 0.0820312 L 84.214844 0.0820312 L 84.214844 56.722656 L 0 56.722656 Z M 0 0.0820312 " fill-opacity="1" fill-rule="nonzero"/></g><g clip-path="url(#32f2bf1209)"><g transform="matrix(1, 0, 0, 1, 1, 10)"><g clip-path="url(#a8dc7ae289)"><g clip-path="url(#c8415e341c)"><path fill="#020bb5" d="M 31.804688 5 C 31.804688 7.285156 29.953125 9.136719 27.667969 9.136719 C 26.804688 9.136719 26 8.871094 25.335938 8.417969 C 22.3125 10.28125 21.554688 12.65625 21.363281 13.765625 C 22.011719 14.824219 22.386719 16.070312 22.386719 17.40625 C 22.386719 19.328125 21.609375 21.074219 20.351562 22.335938 C 20.390625 23.136719 20.722656 24.53125 22.3125 25.859375 C 22.574219 25.824219 22.84375 25.835938 23.117188 25.890625 C 24.417969 26.167969 25.25 27.445312 24.972656 28.746094 C 24.699219 30.046875 23.421875 30.878906 22.121094 30.601562 C 20.820312 30.328125 19.988281 29.050781 20.265625 27.75 C 20.367188 27.257812 20.617188 26.832031 20.953125 26.507812 C 20.304688 24.695312 19.164062 23.945312 18.519531 23.65625 C 17.582031 24.128906 16.519531 24.394531 15.398438 24.394531 C 11.867188 24.394531 8.949219 21.777344 8.476562 18.375 C 8.699219 18.363281 8.914062 18.3125 9.121094 18.226562 L 12.480469 16.785156 C 12.960938 16.578125 13.335938 16.199219 13.53125 15.710938 C 13.726562 15.222656 13.71875 14.691406 13.511719 14.207031 L 12.21875 11.183594 C 13.171875 10.695312 14.253906 10.417969 15.398438 10.417969 C 16.390625 10.417969 17.335938 10.625 18.191406 11 C 19.449219 10.742188 21.941406 9.804688 23.761719 6.367188 C 23.613281 5.9375 23.53125 5.480469 23.53125 5 C 23.53125 2.714844 25.382812 0.863281 27.667969 0.863281 C 29.953125 0.863281 31.804688 2.714844 31.804688 5 Z M 31.804688 5 " fill-opacity="1" fill-rule="nonzero"/></g><g clip-path="url(#277ea46bc1)"><path fill="#bb2e2e" d="M 12.339844 14.707031 C 12.492188 15.058594 12.328125 15.460938 11.980469 15.613281 L 8.621094 17.050781 C 8.269531 17.199219 7.867188 17.039062 7.714844 16.6875 L 6.277344 13.328125 C 6.128906 12.980469 6.289062 12.574219 6.640625 12.425781 L 10 10.988281 C 10.347656 10.835938 10.753906 11 10.902344 11.347656 Z M 8.207031 7.539062 C 8.136719 7.371094 7.945312 7.296875 7.777344 7.367188 L 6.183594 8.046875 C 6.019531 8.117188 5.941406 8.308594 6.015625 8.476562 L 6.695312 10.070312 C 6.765625 10.234375 6.957031 10.3125 7.125 10.242188 L 8.71875 9.558594 C 8.882812 9.488281 8.960938 9.296875 8.886719 9.128906 Z M 5.351562 15.230469 C 5.289062 15.082031 5.117188 15.011719 4.96875 15.078125 L 3.542969 15.6875 C 3.394531 15.75 3.324219 15.921875 3.386719 16.070312 L 4 17.496094 C 4.0625 17.644531 4.234375 17.714844 4.382812 17.652344 L 5.808594 17.039062 C 5.957031 16.976562 6.027344 16.804688 5.960938 16.65625 Z M 3.910156 9.789062 C 3.796875 9.527344 3.492188 9.40625 3.230469 9.515625 L 0.71875 10.59375 C 0.453125 10.707031 0.332031 11.007812 0.445312 11.269531 L 1.523438 13.785156 C 1.636719 14.046875 1.9375 14.167969 2.199219 14.058594 L 4.714844 12.980469 C 4.976562 12.867188 5.097656 12.566406 4.988281 12.304688 Z M 3.910156 9.789062 " fill-opacity="1" fill-rule="nonzero"/></g><g clip-path="url(#f2a83cd679)"><g transform="matrix(1, 0, 0, 1, 25, 11)"><g clip-path="url(#ca0526be2a)"><g clip-path="url(#cd819f05cb)"><g fill="#020bb5" fill-opacity="1"><g transform="translate(0.941263, 9.986936)"><g><path d="M 0.234375 -4.640625 C 0.234375 -5.097656 0.273438 -5.554688 0.359375 -6.015625 C 0.441406 -6.472656 0.570312 -6.90625 0.75 -7.3125 C 0.9375 -7.71875 1.160156 -8.078125 1.421875 -8.390625 C 1.691406 -8.710938 2.007812 -8.960938 2.375 -9.140625 C 2.738281 -9.328125 3.144531 -9.421875 3.59375 -9.421875 C 3.84375 -9.421875 4.078125 -9.390625 4.296875 -9.328125 C 4.515625 -9.265625 4.738281 -9.203125 4.96875 -9.140625 C 5.195312 -9.078125 5.453125 -9.046875 5.734375 -9.046875 C 5.953125 -9.046875 6.125 -9.078125 6.25 -9.140625 C 6.375 -9.203125 6.476562 -9.265625 6.5625 -9.328125 C 6.65625 -9.390625 6.75 -9.421875 6.84375 -9.421875 C 6.96875 -9.421875 7.039062 -9.347656 7.0625 -9.203125 C 7.082031 -9.066406 7.066406 -8.894531 7.015625 -8.6875 C 6.972656 -8.476562 6.910156 -8.273438 6.828125 -8.078125 C 6.765625 -7.929688 6.671875 -7.757812 6.546875 -7.5625 C 6.429688 -7.375 6.285156 -7.207031 6.109375 -7.0625 C 5.941406 -6.914062 5.742188 -6.84375 5.515625 -6.84375 C 5.191406 -6.84375 4.898438 -6.878906 4.640625 -6.953125 C 4.390625 -7.035156 4.15625 -7.128906 3.9375 -7.234375 C 3.726562 -7.347656 3.523438 -7.457031 3.328125 -7.5625 C 3.128906 -7.675781 2.925781 -7.769531 2.71875 -7.84375 C 2.519531 -7.925781 2.300781 -7.96875 2.0625 -7.96875 C 1.90625 -7.96875 1.773438 -7.925781 1.671875 -7.84375 C 1.578125 -7.757812 1.5 -7.65625 1.4375 -7.53125 C 1.382812 -7.40625 1.347656 -7.28125 1.328125 -7.15625 C 1.304688 -7.03125 1.296875 -6.925781 1.296875 -6.84375 C 1.296875 -6.800781 1.296875 -6.722656 1.296875 -6.609375 C 1.296875 -6.492188 1.296875 -6.367188 1.296875 -6.234375 C 1.296875 -6.109375 1.3125 -6 1.34375 -5.90625 C 1.375 -5.820312 1.414062 -5.78125 1.46875 -5.78125 C 1.5625 -5.78125 1.65625 -5.820312 1.75 -5.90625 C 1.851562 -5.988281 1.984375 -6.066406 2.140625 -6.140625 C 2.304688 -6.222656 2.523438 -6.265625 2.796875 -6.265625 C 3.023438 -6.265625 3.242188 -6.222656 3.453125 -6.140625 C 3.671875 -6.066406 3.882812 -5.976562 4.09375 -5.875 C 4.300781 -5.78125 4.5 -5.691406 4.6875 -5.609375 C 4.882812 -5.535156 5.070312 -5.5 5.25 -5.5 C 5.394531 -5.5 5.503906 -5.53125 5.578125 -5.59375 C 5.660156 -5.65625 5.726562 -5.710938 5.78125 -5.765625 C 5.832031 -5.828125 5.882812 -5.859375 5.9375 -5.859375 C 6.007812 -5.859375 6.0625 -5.804688 6.09375 -5.703125 C 6.132812 -5.609375 6.15625 -5.488281 6.15625 -5.34375 C 6.15625 -5.1875 6.125 -5.015625 6.0625 -4.828125 C 6.007812 -4.648438 5.921875 -4.476562 5.796875 -4.3125 C 5.671875 -4.15625 5.503906 -4.023438 5.296875 -3.921875 C 5.097656 -3.828125 4.859375 -3.78125 4.578125 -3.78125 C 4.304688 -3.78125 4.054688 -3.835938 3.828125 -3.953125 C 3.609375 -4.066406 3.40625 -4.207031 3.21875 -4.375 C 3.039062 -4.539062 2.875 -4.703125 2.71875 -4.859375 C 2.5625 -5.023438 2.40625 -5.164062 2.25 -5.28125 C 2.101562 -5.394531 1.953125 -5.453125 1.796875 -5.453125 C 1.703125 -5.453125 1.640625 -5.421875 1.609375 -5.359375 C 1.578125 -5.296875 1.5625 -5.222656 1.5625 -5.140625 C 1.570312 -5.066406 1.585938 -5 1.609375 -4.9375 C 1.796875 -4.363281 2.050781 -3.859375 2.375 -3.421875 C 2.695312 -2.992188 3.0625 -2.65625 3.46875 -2.40625 C 3.875 -2.15625 4.289062 -2.03125 4.71875 -2.03125 C 5.050781 -2.03125 5.320312 -2.078125 5.53125 -2.171875 C 5.738281 -2.265625 5.910156 -2.378906 6.046875 -2.515625 C 6.179688 -2.648438 6.289062 -2.785156 6.375 -2.921875 C 6.457031 -3.054688 6.53125 -3.171875 6.59375 -3.265625 C 6.664062 -3.359375 6.75 -3.40625 6.84375 -3.40625 C 6.90625 -3.40625 6.957031 -3.375 7 -3.3125 C 7.050781 -3.257812 7.078125 -3.125 7.078125 -2.90625 C 7.078125 -2.59375 7.007812 -2.257812 6.875 -1.90625 C 6.738281 -1.550781 6.539062 -1.21875 6.28125 -0.90625 C 6.019531 -0.601562 5.695312 -0.351562 5.3125 -0.15625 C 4.925781 0.0390625 4.484375 0.140625 3.984375 0.140625 C 3.472656 0.140625 2.988281 0.0390625 2.53125 -0.15625 C 2.070312 -0.351562 1.671875 -0.648438 1.328125 -1.046875 C 0.984375 -1.441406 0.710938 -1.9375 0.515625 -2.53125 C 0.328125 -3.132812 0.234375 -3.835938 0.234375 -4.640625 Z M 0.234375 -4.640625 "/></g></g></g></g><g clip-path="url(#b46fa41149)"><g fill="#020bb5" fill-opacity="1"><g transform="translate(8.825924, 9.986936)"><g><path d="M 5.046875 0 L 0.09375 0 C 0.21875 -0.125 0.300781 -0.269531 0.34375 -0.4375 C 0.394531 -0.613281 0.421875 -0.832031 0.421875 -1.09375 L 0.421875 -8.1875 C 0.421875 -8.445312 0.394531 -8.660156 0.34375 -8.828125 C 0.300781 -9.003906 0.21875 -9.15625 0.09375 -9.28125 L 2.9375 -9.28125 C 3.195312 -9.28125 3.394531 -9.234375 3.53125 -9.140625 C 3.664062 -9.054688 3.757812 -8.953125 3.8125 -8.828125 C 3.875 -8.703125 3.90625 -8.578125 3.90625 -8.453125 C 3.90625 -8.222656 3.835938 -7.988281 3.703125 -7.75 C 3.578125 -7.507812 3.410156 -7.265625 3.203125 -7.015625 C 3.003906 -6.765625 2.789062 -6.503906 2.5625 -6.234375 C 2.332031 -5.960938 2.113281 -5.675781 1.90625 -5.375 C 1.707031 -5.082031 1.539062 -4.773438 1.40625 -4.453125 C 1.28125 -4.128906 1.21875 -3.785156 1.21875 -3.421875 C 1.21875 -3.222656 1.25 -2.992188 1.3125 -2.734375 C 1.375 -2.472656 1.46875 -2.207031 1.59375 -1.9375 C 1.726562 -1.675781 1.890625 -1.429688 2.078125 -1.203125 C 2.265625 -0.984375 2.488281 -0.804688 2.75 -0.671875 C 3.007812 -0.535156 3.296875 -0.46875 3.609375 -0.46875 C 3.804688 -0.46875 4 -0.5 4.1875 -0.5625 C 4.375 -0.625 4.523438 -0.71875 4.640625 -0.84375 C 4.765625 -0.976562 4.828125 -1.144531 4.828125 -1.34375 C 4.828125 -1.582031 4.773438 -1.789062 4.671875 -1.96875 C 4.566406 -2.144531 4.4375 -2.304688 4.28125 -2.453125 C 4.125 -2.609375 3.96875 -2.765625 3.8125 -2.921875 C 3.65625 -3.085938 3.519531 -3.28125 3.40625 -3.5 C 3.300781 -3.71875 3.25 -3.988281 3.25 -4.3125 C 3.25 -4.550781 3.304688 -4.769531 3.421875 -4.96875 C 3.535156 -5.175781 3.6875 -5.34375 3.875 -5.46875 C 4.070312 -5.59375 4.289062 -5.65625 4.53125 -5.65625 C 4.675781 -5.65625 4.863281 -5.628906 5.09375 -5.578125 C 5.332031 -5.523438 5.566406 -5.453125 5.796875 -5.359375 C 6.035156 -5.265625 6.234375 -5.15625 6.390625 -5.03125 C 6.554688 -4.90625 6.640625 -4.773438 6.640625 -4.640625 C 6.640625 -4.460938 6.585938 -4.320312 6.484375 -4.21875 C 6.390625 -4.113281 6.265625 -4.023438 6.109375 -3.953125 C 5.960938 -3.890625 5.800781 -3.832031 5.625 -3.78125 C 5.457031 -3.726562 5.296875 -3.671875 5.140625 -3.609375 C 4.984375 -3.554688 4.851562 -3.476562 4.75 -3.375 C 4.65625 -3.28125 4.609375 -3.148438 4.609375 -2.984375 C 4.609375 -2.847656 4.660156 -2.726562 4.765625 -2.625 C 4.867188 -2.53125 5 -2.441406 5.15625 -2.359375 C 5.3125 -2.273438 5.476562 -2.1875 5.65625 -2.09375 C 5.84375 -2 6.015625 -1.894531 6.171875 -1.78125 C 6.328125 -1.664062 6.453125 -1.523438 6.546875 -1.359375 C 6.648438 -1.191406 6.703125 -0.992188 6.703125 -0.765625 C 6.703125 -0.554688 6.648438 -0.394531 6.546875 -0.28125 C 6.453125 -0.175781 6.320312 -0.101562 6.15625 -0.0625 C 5.988281 -0.03125 5.804688 -0.0078125 5.609375 0 C 5.410156 0 5.222656 0 5.046875 0 Z M 5.046875 0 "/></g></g></g></g><g clip-path="url(#5fc7e464d9)"><g fill="#020bb5" fill-opacity="1"><g transform="translate(16.246794, 9.986936)"><g><path d="M 0.234375 -4.640625 C 0.234375 -5.097656 0.273438 -5.554688 0.359375 -6.015625 C 0.441406 -6.472656 0.570312 -6.90625 0.75 -7.3125 C 0.9375 -7.71875 1.160156 -8.078125 1.421875 -8.390625 C 1.691406 -8.710938 2.007812 -8.960938 2.375 -9.140625 C 2.738281 -9.328125 3.144531 -9.421875 3.59375 -9.421875 C 3.84375 -9.421875 4.078125 -9.390625 4.296875 -9.328125 C 4.515625 -9.265625 4.738281 -9.203125 4.96875 -9.140625 C 5.195312 -9.078125 5.453125 -9.046875 5.734375 -9.046875 C 5.953125 -9.046875 6.125 -9.078125 6.25 -9.140625 C 6.375 -9.203125 6.476562 -9.265625 6.5625 -9.328125 C 6.65625 -9.390625 6.75 -9.421875 6.84375 -9.421875 C 6.96875 -9.421875 7.039062 -9.347656 7.0625 -9.203125 C 7.082031 -9.066406 7.066406 -8.894531 7.015625 -8.6875 C 6.972656 -8.476562 6.910156 -8.273438 6.828125 -8.078125 C 6.765625 -7.929688 6.671875 -7.757812 6.546875 -7.5625 C 6.429688 -7.375 6.285156 -7.207031 6.109375 -7.0625 C 5.941406 -6.914062 5.742188 -6.84375 5.515625 -6.84375 C 5.191406 -6.84375 4.898438 -6.878906 4.640625 -6.953125 C 4.390625 -7.035156 4.15625 -7.128906 3.9375 -7.234375 C 3.726562 -7.347656 3.523438 -7.457031 3.328125 -7.5625 C 3.128906 -7.675781 2.925781 -7.769531 2.71875 -7.84375 C 2.519531 -7.925781 2.300781 -7.96875 2.0625 -7.96875 C 1.90625 -7.96875 1.773438 -7.925781 1.671875 -7.84375 C 1.578125 -7.757812 1.5 -7.65625 1.4375 -7.53125 C 1.382812 -7.40625 1.347656 -7.28125 1.328125 -7.15625 C 1.304688 -7.03125 1.296875 -6.925781 1.296875 -6.84375 C 1.296875 -6.800781 1.296875 -6.722656 1.296875 -6.609375 C 1.296875 -6.492188 1.296875 -6.367188 1.296875 -6.234375 C 1.296875 -6.109375 1.3125 -6 1.34375 -5.90625 C 1.375 -5.820312 1.414062 -5.78125 1.46875 -5.78125 C 1.5625 -5.78125 1.65625 -5.820312 1.75 -5.90625 C 1.851562 -5.988281 1.984375 -6.066406 2.140625 -6.140625 C 2.304688 -6.222656 2.523438 -6.265625 2.796875 -6.265625 C 3.023438 -6.265625 3.242188 -6.222656 3.453125 -6.140625 C 3.671875 -6.066406 3.882812 -5.976562 4.09375 -5.875 C 4.300781 -5.78125 4.5 -5.691406 4.6875 -5.609375 C 4.882812 -5.535156 5.070312 -5.5 5.25 -5.5 C 5.394531 -5.5 5.503906 -5.53125 5.578125 -5.59375 C 5.660156 -5.65625 5.726562 -5.710938 5.78125 -5.765625 C 5.832031 -5.828125 5.882812 -5.859375 5.9375 -5.859375 C 6.007812 -5.859375 6.0625 -5.804688 6.09375 -5.703125 C 6.132812 -5.609375 6.15625 -5.488281 6.15625 -5.34375 C 6.15625 -5.1875 6.125 -5.015625 6.0625 -4.828125 C 6.007812 -4.648438 5.921875 -4.476562 5.796875 -4.3125 C 5.671875 -4.15625 5.503906 -4.023438 5.296875 -3.921875 C 5.097656 -3.828125 4.859375 -3.78125 4.578125 -3.78125 C 4.304688 -3.78125 4.054688 -3.835938 3.828125 -3.953125 C 3.609375 -4.066406 3.40625 -4.207031 3.21875 -4.375 C 3.039062 -4.539062 2.875 -4.703125 2.71875 -4.859375 C 2.5625 -5.023438 2.40625 -5.164062 2.25 -5.28125 C 2.101562 -5.394531 1.953125 -5.453125 1.796875 -5.453125 C 1.703125 -5.453125 1.640625 -5.421875 1.609375 -5.359375 C 1.578125 -5.296875 1.5625 -5.222656 1.5625 -5.140625 C 1.570312 -5.066406 1.585938 -5 1.609375 -4.9375 C 1.796875 -4.363281 2.050781 -3.859375 2.375 -3.421875 C 2.695312 -2.992188 3.0625 -2.65625 3.46875 -2.40625 C 3.875 -2.15625 4.289062 -2.03125 4.71875 -2.03125 C 5.050781 -2.03125 5.320312 -2.078125 5.53125 -2.171875 C 5.738281 -2.265625 5.910156 -2.378906 6.046875 -2.515625 C 6.179688 -2.648438 6.289062 -2.785156 6.375 -2.921875 C 6.457031 -3.054688 6.53125 -3.171875 6.59375 -3.265625 C 6.664062 -3.359375 6.75 -3.40625 6.84375 -3.40625 C 6.90625 -3.40625 6.957031 -3.375 7 -3.3125 C 7.050781 -3.257812 7.078125 -3.125 7.078125 -2.90625 C 7.078125 -2.59375 7.007812 -2.257812 6.875 -1.90625 C 6.738281 -1.550781 6.539062 -1.21875 6.28125 -0.90625 C 6.019531 -0.601562 5.695312 -0.351562 5.3125 -0.15625 C 4.925781 0.0390625 4.484375 0.140625 3.984375 0.140625 C 3.472656 0.140625 2.988281 0.0390625 2.53125 -0.15625 C 2.070312 -0.351562 1.671875 -0.648438 1.328125 -1.046875 C 0.984375 -1.441406 0.710938 -1.9375 0.515625 -2.53125 C 0.328125 -3.132812 0.234375 -3.835938 0.234375 -4.640625 Z M 0.234375 -4.640625 "/></g></g></g></g><g clip-path="url(#af0b1e92d4)"><g fill="#bb2e2e" fill-opacity="1"><g transform="translate(24.135316, 9.986936)"><g><path d="M 0.09375 -2.046875 C 0.09375 -2.503906 0.179688 -2.914062 0.359375 -3.28125 C 0.535156 -3.644531 0.769531 -3.972656 1.0625 -4.265625 C 1.363281 -4.554688 1.703125 -4.816406 2.078125 -5.046875 C 2.453125 -5.273438 2.835938 -5.484375 3.234375 -5.671875 C 3.628906 -5.859375 4.007812 -6.03125 4.375 -6.1875 C 4.75 -6.34375 5.085938 -6.492188 5.390625 -6.640625 C 5.691406 -6.796875 5.925781 -6.945312 6.09375 -7.09375 C 6.269531 -7.25 6.359375 -7.414062 6.359375 -7.59375 C 6.359375 -7.738281 6.296875 -7.84375 6.171875 -7.90625 C 6.054688 -7.96875 5.914062 -8 5.75 -8 C 5.445312 -8 5.148438 -7.941406 4.859375 -7.828125 C 4.578125 -7.710938 4.285156 -7.578125 3.984375 -7.421875 C 3.679688 -7.265625 3.359375 -7.128906 3.015625 -7.015625 C 2.679688 -6.898438 2.304688 -6.84375 1.890625 -6.84375 C 1.671875 -6.84375 1.472656 -6.914062 1.296875 -7.0625 C 1.128906 -7.207031 0.984375 -7.375 0.859375 -7.5625 C 0.742188 -7.757812 0.65625 -7.929688 0.59375 -8.078125 C 0.507812 -8.273438 0.441406 -8.476562 0.390625 -8.6875 C 0.347656 -8.894531 0.335938 -9.066406 0.359375 -9.203125 C 0.378906 -9.347656 0.445312 -9.421875 0.5625 -9.421875 C 0.664062 -9.421875 0.757812 -9.390625 0.84375 -9.328125 C 0.925781 -9.265625 1.03125 -9.203125 1.15625 -9.140625 C 1.289062 -9.078125 1.46875 -9.046875 1.6875 -9.046875 C 1.894531 -9.046875 2.140625 -9.0625 2.421875 -9.09375 C 2.703125 -9.132812 2.988281 -9.179688 3.28125 -9.234375 C 3.582031 -9.285156 3.867188 -9.328125 4.140625 -9.359375 C 4.410156 -9.398438 4.632812 -9.421875 4.8125 -9.421875 C 5.25 -9.421875 5.601562 -9.367188 5.875 -9.265625 C 6.15625 -9.160156 6.367188 -9.023438 6.515625 -8.859375 C 6.671875 -8.691406 6.78125 -8.519531 6.84375 -8.34375 C 6.90625 -8.175781 6.9375 -8.019531 6.9375 -7.875 C 6.9375 -7.644531 6.875 -7.40625 6.75 -7.15625 C 6.632812 -6.914062 6.476562 -6.679688 6.28125 -6.453125 C 6.09375 -6.222656 5.890625 -6 5.671875 -5.78125 C 5.460938 -5.5625 5.265625 -5.351562 5.078125 -5.15625 C 4.898438 -4.96875 4.757812 -4.796875 4.65625 -4.640625 C 4.3125 -4.253906 3.957031 -3.863281 3.59375 -3.46875 C 3.226562 -3.070312 2.890625 -2.703125 2.578125 -2.359375 C 2.265625 -2.015625 2.007812 -1.707031 1.8125 -1.4375 C 1.625 -1.175781 1.53125 -0.972656 1.53125 -0.828125 C 1.53125 -0.722656 1.566406 -0.632812 1.640625 -0.5625 C 1.722656 -0.488281 1.8125 -0.453125 1.90625 -0.453125 C 2.164062 -0.453125 2.421875 -0.519531 2.671875 -0.65625 C 2.921875 -0.789062 3.175781 -0.957031 3.4375 -1.15625 C 3.695312 -1.363281 3.960938 -1.566406 4.234375 -1.765625 C 4.515625 -1.960938 4.796875 -2.128906 5.078125 -2.265625 C 5.359375 -2.410156 5.65625 -2.484375 5.96875 -2.484375 C 6.113281 -2.484375 6.257812 -2.453125 6.40625 -2.390625 C 6.5625 -2.335938 6.6875 -2.253906 6.78125 -2.140625 C 6.882812 -2.035156 6.9375 -1.90625 6.9375 -1.75 L 6.9375 0 L 1.34375 0 C 1.113281 0 0.914062 -0.0625 0.75 -0.1875 C 0.59375 -0.3125 0.460938 -0.472656 0.359375 -0.671875 C 0.265625 -0.878906 0.195312 -1.101562 0.15625 -1.34375 C 0.113281 -1.582031 0.09375 -1.816406 0.09375 -2.046875 Z M 0.09375 -2.046875 "/></g></g></g></g><g clip-path="url(#0d3cdda5bb)"><g fill="#020bb5" fill-opacity="1"><g transform="translate(31.885053, 9.986936)"><g><path d="M 0.234375 -4.640625 C 0.234375 -5.097656 0.273438 -5.554688 0.359375 -6.015625 C 0.441406 -6.472656 0.570312 -6.90625 0.75 -7.3125 C 0.9375 -7.71875 1.160156 -8.078125 1.421875 -8.390625 C 1.691406 -8.710938 2.007812 -8.960938 2.375 -9.140625 C 2.738281 -9.328125 3.144531 -9.421875 3.59375 -9.421875 C 3.84375 -9.421875 4.078125 -9.390625 4.296875 -9.328125 C 4.515625 -9.265625 4.738281 -9.203125 4.96875 -9.140625 C 5.195312 -9.078125 5.453125 -9.046875 5.734375 -9.046875 C 5.953125 -9.046875 6.125 -9.078125 6.25 -9.140625 C 6.375 -9.203125 6.476562 -9.265625 6.5625 -9.328125 C 6.65625 -9.390625 6.75 -9.421875 6.84375 -9.421875 C 6.96875 -9.421875 7.039062 -9.347656 7.0625 -9.203125 C 7.082031 -9.066406 7.066406 -8.894531 7.015625 -8.6875 C 6.972656 -8.476562 6.910156 -8.273438 6.828125 -8.078125 C 6.765625 -7.929688 6.671875 -7.757812 6.546875 -7.5625 C 6.429688 -7.375 6.285156 -7.207031 6.109375 -7.0625 C 5.941406 -6.914062 5.742188 -6.84375 5.515625 -6.84375 C 5.191406 -6.84375 4.898438 -6.878906 4.640625 -6.953125 C 4.390625 -7.035156 4.15625 -7.128906 3.9375 -7.234375 C 3.726562 -7.347656 3.523438 -7.457031 3.328125 -7.5625 C 3.128906 -7.675781 2.925781 -7.769531 2.71875 -7.84375 C 2.519531 -7.925781 2.300781 -7.96875 2.0625 -7.96875 C 1.90625 -7.96875 1.773438 -7.925781 1.671875 -7.84375 C 1.578125 -7.757812 1.5 -7.65625 1.4375 -7.53125 C 1.382812 -7.40625 1.347656 -7.28125 1.328125 -7.15625 C 1.304688 -7.03125 1.296875 -6.925781 1.296875 -6.84375 C 1.296875 -6.800781 1.296875 -6.722656 1.296875 -6.609375 C 1.296875 -6.492188 1.296875 -6.367188 1.296875 -6.234375 C 1.296875 -6.109375 1.3125 -6 1.34375 -5.90625 C 1.375 -5.820312 1.414062 -5.78125 1.46875 -5.78125 C 1.5625 -5.78125 1.65625 -5.820312 1.75 -5.90625 C 1.851562 -5.988281 1.984375 -6.066406 2.140625 -6.140625 C 2.304688 -6.222656 2.523438 -6.265625 2.796875 -6.265625 C 3.023438 -6.265625 3.242188 -6.222656 3.453125 -6.140625 C 3.671875 -6.066406 3.882812 -5.976562 4.09375 -5.875 C 4.300781 -5.78125 4.5 -5.691406 4.6875 -5.609375 C 4.882812 -5.535156 5.070312 -5.5 5.25 -5.5 C 5.394531 -5.5 5.503906 -5.53125 5.578125 -5.59375 C 5.660156 -5.65625 5.726562 -5.710938 5.78125 -5.765625 C 5.832031 -5.828125 5.882812 -5.859375 5.9375 -5.859375 C 6.007812 -5.859375 6.0625 -5.804688 6.09375 -5.703125 C 6.132812 -5.609375 6.15625 -5.488281 6.15625 -5.34375 C 6.15625 -5.1875 6.125 -5.015625 6.0625 -4.828125 C 6.007812 -4.648438 5.921875 -4.476562 5.796875 -4.3125 C 5.671875 -4.15625 5.503906 -4.023438 5.296875 -3.921875 C 5.097656 -3.828125 4.859375 -3.78125 4.578125 -3.78125 C 4.304688 -3.78125 4.054688 -3.835938 3.828125 -3.953125 C 3.609375 -4.066406 3.40625 -4.207031 3.21875 -4.375 C 3.039062 -4.539062 2.875 -4.703125 2.71875 -4.859375 C 2.5625 -5.023438 2.40625 -5.164062 2.25 -5.28125 C 2.101562 -5.394531 1.953125 -5.453125 1.796875 -5.453125 C 1.703125 -5.453125 1.640625 -5.421875 1.609375 -5.359375 C 1.578125 -5.296875 1.5625 -5.222656 1.5625 -5.140625 C 1.570312 -5.066406 1.585938 -5 1.609375 -4.9375 C 1.796875 -4.363281 2.050781 -3.859375 2.375 -3.421875 C 2.695312 -2.992188 3.0625 -2.65625 3.46875 -2.40625 C 3.875 -2.15625 4.289062 -2.03125 4.71875 -2.03125 C 5.050781 -2.03125 5.320312 -2.078125 5.53125 -2.171875 C 5.738281 -2.265625 5.910156 -2.378906 6.046875 -2.515625 C 6.179688 -2.648438 6.289062 -2.785156 6.375 -2.921875 C 6.457031 -3.054688 6.53125 -3.171875 6.59375 -3.265625 C 6.664062 -3.359375 6.75 -3.40625 6.84375 -3.40625 C 6.90625 -3.40625 6.957031 -3.375 7 -3.3125 C 7.050781 -3.257812 7.078125 -3.125 7.078125 -2.90625 C 7.078125 -2.59375 7.007812 -2.257812 6.875 -1.90625 C 6.738281 -1.550781 6.539062 -1.21875 6.28125 -0.90625 C 6.019531 -0.601562 5.695312 -0.351562 5.3125 -0.15625 C 4.925781 0.0390625 4.484375 0.140625 3.984375 0.140625 C 3.472656 0.140625 2.988281 0.0390625 2.53125 -0.15625 C 2.070312 -0.351562 1.671875 -0.648438 1.328125 -1.046875 C 0.984375 -1.441406 0.710938 -1.9375 0.515625 -2.53125 C 0.328125 -3.132812 0.234375 -3.835938 0.234375 -4.640625 Z M 0.234375 -4.640625 "/></g></g></g></g><g clip-path="url(#a858deaca9)"><g fill="#020bb5" fill-opacity="1"><g transform="translate(39.769714, 9.986936)"><g><path d="M 0.09375 0 C 0.21875 -0.125 0.300781 -0.269531 0.34375 -0.4375 C 0.394531 -0.613281 0.421875 -0.832031 0.421875 -1.09375 L 0.421875 -8.1875 C 0.421875 -8.445312 0.394531 -8.660156 0.34375 -8.828125 C 0.300781 -9.003906 0.21875 -9.15625 0.09375 -9.28125 L 2.859375 -9.28125 C 3.015625 -9.28125 3.148438 -9.25 3.265625 -9.1875 C 3.390625 -9.132812 3.503906 -9.007812 3.609375 -8.8125 C 3.722656 -8.625 3.847656 -8.347656 3.984375 -7.984375 C 4.128906 -7.617188 4.304688 -7.125 4.515625 -6.5 L 5.390625 -3.890625 C 5.472656 -3.640625 5.554688 -3.390625 5.640625 -3.140625 C 5.722656 -2.890625 5.804688 -2.660156 5.890625 -2.453125 C 5.984375 -2.242188 6.070312 -2.078125 6.15625 -1.953125 C 6.238281 -1.828125 6.320312 -1.765625 6.40625 -1.765625 C 6.507812 -1.765625 6.582031 -1.816406 6.625 -1.921875 C 6.675781 -2.035156 6.707031 -2.171875 6.71875 -2.328125 C 6.738281 -2.492188 6.75 -2.644531 6.75 -2.78125 C 6.75 -3.375 6.675781 -3.910156 6.53125 -4.390625 C 6.394531 -4.867188 6.222656 -5.300781 6.015625 -5.6875 C 5.804688 -6.070312 5.59375 -6.421875 5.375 -6.734375 C 5.164062 -7.054688 4.988281 -7.359375 4.84375 -7.640625 C 4.707031 -7.921875 4.640625 -8.195312 4.640625 -8.46875 C 4.640625 -8.75 4.742188 -8.953125 4.953125 -9.078125 C 5.160156 -9.210938 5.398438 -9.28125 5.671875 -9.28125 L 7.609375 -9.28125 C 7.484375 -9.15625 7.394531 -9.003906 7.34375 -8.828125 C 7.300781 -8.660156 7.28125 -8.445312 7.28125 -8.1875 L 7.28125 -1.09375 C 7.28125 -0.832031 7.300781 -0.613281 7.34375 -0.4375 C 7.394531 -0.269531 7.484375 -0.125 7.609375 0 L 5.171875 0 C 4.910156 0 4.679688 -0.0664062 4.484375 -0.203125 C 4.296875 -0.335938 4.132812 -0.515625 4 -0.734375 C 3.875 -0.960938 3.753906 -1.222656 3.640625 -1.515625 C 3.535156 -1.804688 3.429688 -2.109375 3.328125 -2.421875 C 3.265625 -2.609375 3.1875 -2.835938 3.09375 -3.109375 C 3 -3.378906 2.898438 -3.660156 2.796875 -3.953125 C 2.703125 -4.242188 2.609375 -4.515625 2.515625 -4.765625 C 2.429688 -5.023438 2.363281 -5.234375 2.3125 -5.390625 C 2.226562 -5.640625 2.144531 -5.890625 2.0625 -6.140625 C 1.976562 -6.390625 1.894531 -6.617188 1.8125 -6.828125 C 1.726562 -7.035156 1.640625 -7.203125 1.546875 -7.328125 C 1.460938 -7.453125 1.378906 -7.515625 1.296875 -7.515625 C 1.203125 -7.515625 1.128906 -7.457031 1.078125 -7.34375 C 1.023438 -7.238281 0.988281 -7.101562 0.96875 -6.9375 C 0.957031 -6.78125 0.953125 -6.632812 0.953125 -6.5 C 0.953125 -5.90625 1.023438 -5.367188 1.171875 -4.890625 C 1.316406 -4.410156 1.492188 -3.976562 1.703125 -3.59375 C 1.910156 -3.207031 2.117188 -2.851562 2.328125 -2.53125 C 2.535156 -2.21875 2.707031 -1.921875 2.84375 -1.640625 C 2.988281 -1.359375 3.0625 -1.082031 3.0625 -0.8125 C 3.0625 -0.53125 2.957031 -0.320312 2.75 -0.1875 C 2.539062 -0.0625 2.300781 0 2.03125 0 Z M 0.09375 0 "/></g></g></g></g><g clip-path="url(#4d452e5c49)"><g fill="#020bb5" fill-opacity="1"><g transform="translate(48.090335, 9.986936)"><g><path d="M 1.5 -7.015625 C 1.3125 -7.390625 1.125 -7.738281 0.9375 -8.0625 C 0.757812 -8.382812 0.59375 -8.65625 0.4375 -8.875 C 0.28125 -9.09375 0.132812 -9.226562 0 -9.28125 L 3.6875 -9.28125 C 3.601562 -9.257812 3.546875 -9.191406 3.515625 -9.078125 C 3.492188 -8.972656 3.488281 -8.867188 3.5 -8.765625 C 3.519531 -8.660156 3.539062 -8.578125 3.5625 -8.515625 C 3.695312 -8.234375 3.800781 -8.003906 3.875 -7.828125 C 3.957031 -7.660156 4.019531 -7.523438 4.0625 -7.421875 C 4.113281 -7.316406 4.15625 -7.226562 4.1875 -7.15625 C 4.21875 -7.082031 4.253906 -7.003906 4.296875 -6.921875 C 4.378906 -6.742188 4.46875 -6.550781 4.5625 -6.34375 C 4.65625 -6.144531 4.742188 -5.953125 4.828125 -5.765625 C 4.921875 -5.585938 5.003906 -5.441406 5.078125 -5.328125 C 5.160156 -5.210938 5.234375 -5.15625 5.296875 -5.15625 C 5.347656 -5.15625 5.394531 -5.1875 5.4375 -5.25 C 5.476562 -5.320312 5.507812 -5.40625 5.53125 -5.5 C 5.550781 -5.59375 5.566406 -5.671875 5.578125 -5.734375 C 5.585938 -5.804688 5.59375 -5.84375 5.59375 -5.84375 C 5.59375 -6.070312 5.550781 -6.300781 5.46875 -6.53125 C 5.382812 -6.769531 5.285156 -7 5.171875 -7.21875 C 5.054688 -7.445312 4.953125 -7.660156 4.859375 -7.859375 C 4.773438 -8.066406 4.734375 -8.265625 4.734375 -8.453125 C 4.734375 -8.648438 4.773438 -8.835938 4.859375 -9.015625 C 4.953125 -9.191406 5.097656 -9.28125 5.296875 -9.28125 L 8.03125 -9.28125 C 7.9375 -9.257812 7.816406 -9.144531 7.671875 -8.9375 C 7.535156 -8.738281 7.382812 -8.476562 7.21875 -8.15625 C 7.0625 -7.84375 6.898438 -7.503906 6.734375 -7.140625 C 6.578125 -6.785156 6.425781 -6.4375 6.28125 -6.09375 C 6.132812 -5.75 6.007812 -5.445312 5.90625 -5.1875 C 5.8125 -4.925781 5.742188 -4.742188 5.703125 -4.640625 C 5.671875 -4.554688 5.644531 -4.492188 5.625 -4.453125 C 5.613281 -4.421875 5.609375 -4.375 5.609375 -4.3125 C 5.609375 -4.25 5.640625 -4.140625 5.703125 -3.984375 C 5.773438 -3.835938 5.859375 -3.660156 5.953125 -3.453125 C 6.054688 -3.253906 6.164062 -3.050781 6.28125 -2.84375 C 6.394531 -2.632812 6.492188 -2.441406 6.578125 -2.265625 C 6.773438 -1.890625 6.957031 -1.539062 7.125 -1.21875 C 7.300781 -0.894531 7.46875 -0.625 7.625 -0.40625 C 7.789062 -0.1875 7.941406 -0.0507812 8.078125 0 L 4.375 0 C 4.46875 -0.03125 4.523438 -0.0976562 4.546875 -0.203125 C 4.566406 -0.304688 4.570312 -0.410156 4.5625 -0.515625 C 4.550781 -0.628906 4.535156 -0.710938 4.515625 -0.765625 C 4.378906 -1.046875 4.269531 -1.269531 4.1875 -1.4375 C 4.113281 -1.613281 4.050781 -1.753906 4 -1.859375 C 3.957031 -1.960938 3.914062 -2.050781 3.875 -2.125 C 3.84375 -2.195312 3.8125 -2.273438 3.78125 -2.359375 C 3.695312 -2.535156 3.609375 -2.722656 3.515625 -2.921875 C 3.421875 -3.128906 3.328125 -3.320312 3.234375 -3.5 C 3.148438 -3.6875 3.066406 -3.835938 2.984375 -3.953125 C 2.910156 -4.066406 2.84375 -4.125 2.78125 -4.125 C 2.726562 -4.125 2.679688 -4.085938 2.640625 -4.015625 C 2.597656 -3.953125 2.5625 -3.875 2.53125 -3.78125 C 2.507812 -3.6875 2.492188 -3.601562 2.484375 -3.53125 C 2.484375 -3.46875 2.484375 -3.4375 2.484375 -3.4375 C 2.484375 -3.207031 2.523438 -2.972656 2.609375 -2.734375 C 2.691406 -2.503906 2.789062 -2.273438 2.90625 -2.046875 C 3.019531 -1.828125 3.117188 -1.613281 3.203125 -1.40625 C 3.296875 -1.207031 3.34375 -1.015625 3.34375 -0.828125 C 3.34375 -0.628906 3.296875 -0.441406 3.203125 -0.265625 C 3.117188 -0.0859375 2.976562 0 2.78125 0 L 0.046875 0 C 0.140625 -0.0195312 0.253906 -0.128906 0.390625 -0.328125 C 0.535156 -0.535156 0.6875 -0.796875 0.84375 -1.109375 C 1 -1.421875 1.15625 -1.757812 1.3125 -2.125 C 1.476562 -2.488281 1.632812 -2.84375 1.78125 -3.1875 C 1.925781 -3.53125 2.050781 -3.832031 2.15625 -4.09375 C 2.257812 -4.351562 2.332031 -4.535156 2.375 -4.640625 C 2.425781 -4.753906 2.421875 -4.914062 2.359375 -5.125 C 2.296875 -5.332031 2.207031 -5.554688 2.09375 -5.796875 C 1.988281 -6.046875 1.878906 -6.28125 1.765625 -6.5 C 1.648438 -6.71875 1.5625 -6.890625 1.5 -7.015625 Z M 1.5 -7.015625 "/></g></g></g></g><g fill="#020bb5" fill-opacity="1"><g transform="translate(56.784413, 9.986936)"><g/></g></g></g></g></g><g transform="matrix(1, 0, 0, 1, 26, 20)"><g clip-path="url(#549be090ca)"><g clip-path="url(#11fccfefb5)"><g fill="#020bb5" fill-opacity="1"><g transform="translate(0.712574, 7.50307)"><g><path d="M 2.34375 0 L 1.375 0 L 1.375 -3.78125 L 0.125 -3.78125 L 0.125 -4.59375 L 3.59375 -4.59375 L 3.59375 -3.78125 L 2.34375 -3.78125 Z M 2.34375 0 "/></g></g></g></g><g fill="#020bb5" fill-opacity="1"><g transform="translate(4.945386, 7.50307)"><g><path d="M 1.953125 -3.578125 C 2.273438 -3.578125 2.550781 -3.515625 2.78125 -3.390625 C 3.019531 -3.265625 3.203125 -3.082031 3.328125 -2.84375 C 3.460938 -2.613281 3.53125 -2.328125 3.53125 -1.984375 L 3.53125 -1.515625 L 1.265625 -1.515625 C 1.273438 -1.242188 1.351562 -1.03125 1.5 -0.875 C 1.65625 -0.726562 1.867188 -0.65625 2.140625 -0.65625 C 2.359375 -0.65625 2.5625 -0.675781 2.75 -0.71875 C 2.9375 -0.757812 3.128906 -0.828125 3.328125 -0.921875 L 3.328125 -0.1875 C 3.148438 -0.101562 2.96875 -0.0390625 2.78125 0 C 2.59375 0.0390625 2.363281 0.0625 2.09375 0.0625 C 1.738281 0.0625 1.425781 0 1.15625 -0.125 C 0.882812 -0.257812 0.671875 -0.457031 0.515625 -0.71875 C 0.367188 -0.988281 0.296875 -1.328125 0.296875 -1.734375 C 0.296875 -2.140625 0.363281 -2.476562 0.5 -2.75 C 0.632812 -3.03125 0.828125 -3.238281 1.078125 -3.375 C 1.328125 -3.507812 1.617188 -3.578125 1.953125 -3.578125 Z M 1.953125 -2.890625 C 1.765625 -2.890625 1.609375 -2.832031 1.484375 -2.71875 C 1.367188 -2.601562 1.300781 -2.414062 1.28125 -2.15625 L 2.625 -2.15625 C 2.625 -2.300781 2.597656 -2.425781 2.546875 -2.53125 C 2.503906 -2.644531 2.429688 -2.734375 2.328125 -2.796875 C 2.234375 -2.859375 2.109375 -2.890625 1.953125 -2.890625 Z M 1.953125 -2.890625 "/></g></g></g><g fill="#020bb5" fill-opacity="1"><g transform="translate(9.25368, 7.50307)"><g><path d="M 1.9375 0.0625 C 1.582031 0.0625 1.28125 0 1.03125 -0.125 C 0.789062 -0.25 0.609375 -0.441406 0.484375 -0.703125 C 0.359375 -0.972656 0.296875 -1.316406 0.296875 -1.734375 C 0.296875 -2.160156 0.363281 -2.507812 0.5 -2.78125 C 0.644531 -3.0625 0.847656 -3.265625 1.109375 -3.390625 C 1.367188 -3.515625 1.671875 -3.578125 2.015625 -3.578125 C 2.253906 -3.578125 2.460938 -3.550781 2.640625 -3.5 C 2.816406 -3.457031 2.972656 -3.40625 3.109375 -3.34375 L 2.828125 -2.59375 C 2.671875 -2.65625 2.523438 -2.707031 2.390625 -2.75 C 2.265625 -2.789062 2.140625 -2.8125 2.015625 -2.8125 C 1.847656 -2.8125 1.707031 -2.769531 1.59375 -2.6875 C 1.488281 -2.613281 1.40625 -2.492188 1.34375 -2.328125 C 1.289062 -2.171875 1.265625 -1.976562 1.265625 -1.75 C 1.265625 -1.507812 1.289062 -1.3125 1.34375 -1.15625 C 1.40625 -1.007812 1.492188 -0.898438 1.609375 -0.828125 C 1.722656 -0.753906 1.859375 -0.71875 2.015625 -0.71875 C 2.210938 -0.71875 2.390625 -0.742188 2.546875 -0.796875 C 2.703125 -0.847656 2.851562 -0.921875 3 -1.015625 L 3 -0.203125 C 2.851562 -0.109375 2.695312 -0.0390625 2.53125 0 C 2.375 0.0390625 2.175781 0.0625 1.9375 0.0625 Z M 1.9375 0.0625 "/></g></g></g><g fill="#020bb5" fill-opacity="1"><g transform="translate(13.068197, 7.50307)"><g><path d="M 1.46875 -4.890625 L 1.46875 -3.890625 C 1.46875 -3.722656 1.457031 -3.554688 1.4375 -3.390625 C 1.425781 -3.234375 1.421875 -3.125 1.421875 -3.0625 L 1.46875 -3.0625 C 1.539062 -3.1875 1.628906 -3.285156 1.734375 -3.359375 C 1.835938 -3.429688 1.953125 -3.484375 2.078125 -3.515625 C 2.203125 -3.554688 2.335938 -3.578125 2.484375 -3.578125 C 2.734375 -3.578125 2.953125 -3.53125 3.140625 -3.4375 C 3.335938 -3.351562 3.488281 -3.21875 3.59375 -3.03125 C 3.695312 -2.84375 3.75 -2.597656 3.75 -2.296875 L 3.75 0 L 2.78125 0 L 2.78125 -2.046875 C 2.78125 -2.304688 2.734375 -2.5 2.640625 -2.625 C 2.554688 -2.75 2.414062 -2.8125 2.21875 -2.8125 C 2.03125 -2.8125 1.878906 -2.765625 1.765625 -2.671875 C 1.648438 -2.585938 1.570312 -2.457031 1.53125 -2.28125 C 1.488281 -2.113281 1.46875 -1.90625 1.46875 -1.65625 L 1.46875 0 L 0.5 0 L 0.5 -4.890625 Z M 1.46875 -4.890625 "/></g></g></g><g fill="#020bb5" fill-opacity="1"><g transform="translate(17.804224, 7.50307)"><g/></g></g><g fill="#020bb5" fill-opacity="1"><g transform="translate(19.980142, 7.50307)"><g><path d="M 3.296875 -1.28125 C 3.296875 -1.007812 3.226562 -0.769531 3.09375 -0.5625 C 2.957031 -0.363281 2.765625 -0.207031 2.515625 -0.09375 C 2.265625 0.0078125 1.957031 0.0625 1.59375 0.0625 C 1.4375 0.0625 1.28125 0.0507812 1.125 0.03125 C 0.976562 0.0078125 0.832031 -0.0195312 0.6875 -0.0625 C 0.550781 -0.101562 0.421875 -0.15625 0.296875 -0.21875 L 0.296875 -1.125 C 0.515625 -1.019531 0.738281 -0.925781 0.96875 -0.84375 C 1.207031 -0.769531 1.441406 -0.734375 1.671875 -0.734375 C 1.828125 -0.734375 1.953125 -0.753906 2.046875 -0.796875 C 2.148438 -0.847656 2.222656 -0.910156 2.265625 -0.984375 C 2.304688 -1.054688 2.328125 -1.140625 2.328125 -1.234375 C 2.328125 -1.347656 2.289062 -1.441406 2.21875 -1.515625 C 2.144531 -1.597656 2.039062 -1.675781 1.90625 -1.75 C 1.769531 -1.820312 1.613281 -1.898438 1.4375 -1.984375 C 1.332031 -2.035156 1.21875 -2.097656 1.09375 -2.171875 C 0.96875 -2.242188 0.847656 -2.332031 0.734375 -2.4375 C 0.617188 -2.539062 0.523438 -2.664062 0.453125 -2.8125 C 0.378906 -2.96875 0.34375 -3.148438 0.34375 -3.359375 C 0.34375 -3.628906 0.40625 -3.859375 0.53125 -4.046875 C 0.65625 -4.242188 0.832031 -4.394531 1.0625 -4.5 C 1.300781 -4.601562 1.582031 -4.65625 1.90625 -4.65625 C 2.144531 -4.65625 2.367188 -4.628906 2.578125 -4.578125 C 2.796875 -4.523438 3.023438 -4.445312 3.265625 -4.34375 L 2.953125 -3.578125 C 2.742188 -3.660156 2.554688 -3.722656 2.390625 -3.765625 C 2.222656 -3.816406 2.050781 -3.84375 1.875 -3.84375 C 1.75 -3.84375 1.644531 -3.820312 1.5625 -3.78125 C 1.476562 -3.75 1.410156 -3.695312 1.359375 -3.625 C 1.316406 -3.5625 1.296875 -3.484375 1.296875 -3.390625 C 1.296875 -3.273438 1.328125 -3.179688 1.390625 -3.109375 C 1.460938 -3.035156 1.5625 -2.960938 1.6875 -2.890625 C 1.8125 -2.828125 1.972656 -2.75 2.171875 -2.65625 C 2.398438 -2.539062 2.597656 -2.421875 2.765625 -2.296875 C 2.929688 -2.179688 3.0625 -2.039062 3.15625 -1.875 C 3.25 -1.71875 3.296875 -1.519531 3.296875 -1.28125 Z M 3.296875 -1.28125 "/></g></g></g><g fill="#020bb5" fill-opacity="1"><g transform="translate(24.030538, 7.50307)"><g><path d="M 3.703125 -1.765625 C 3.703125 -1.472656 3.660156 -1.210938 3.578125 -0.984375 C 3.492188 -0.753906 3.378906 -0.5625 3.234375 -0.40625 C 3.085938 -0.25 2.90625 -0.128906 2.6875 -0.046875 C 2.476562 0.0234375 2.242188 0.0625 1.984375 0.0625 C 1.734375 0.0625 1.503906 0.0234375 1.296875 -0.046875 C 1.097656 -0.128906 0.921875 -0.25 0.765625 -0.40625 C 0.609375 -0.5625 0.488281 -0.753906 0.40625 -0.984375 C 0.332031 -1.210938 0.296875 -1.472656 0.296875 -1.765625 C 0.296875 -2.148438 0.363281 -2.476562 0.5 -2.75 C 0.632812 -3.019531 0.828125 -3.222656 1.078125 -3.359375 C 1.335938 -3.503906 1.644531 -3.578125 2 -3.578125 C 2.332031 -3.578125 2.625 -3.503906 2.875 -3.359375 C 3.132812 -3.222656 3.335938 -3.019531 3.484375 -2.75 C 3.628906 -2.476562 3.703125 -2.148438 3.703125 -1.765625 Z M 1.265625 -1.765625 C 1.265625 -1.535156 1.289062 -1.34375 1.34375 -1.1875 C 1.394531 -1.03125 1.472656 -0.910156 1.578125 -0.828125 C 1.679688 -0.742188 1.820312 -0.703125 2 -0.703125 C 2.164062 -0.703125 2.300781 -0.742188 2.40625 -0.828125 C 2.507812 -0.910156 2.585938 -1.03125 2.640625 -1.1875 C 2.691406 -1.34375 2.71875 -1.535156 2.71875 -1.765625 C 2.71875 -1.992188 2.691406 -2.1875 2.640625 -2.34375 C 2.585938 -2.5 2.507812 -2.613281 2.40625 -2.6875 C 2.300781 -2.769531 2.160156 -2.8125 1.984375 -2.8125 C 1.734375 -2.8125 1.550781 -2.722656 1.4375 -2.546875 C 1.320312 -2.367188 1.265625 -2.109375 1.265625 -1.765625 Z M 1.265625 -1.765625 "/></g></g></g><g fill="#020bb5" fill-opacity="1"><g transform="translate(28.521248, 7.50307)"><g><path d="M 1.46875 0 L 0.5 0 L 0.5 -4.890625 L 1.46875 -4.890625 Z M 1.46875 0 "/></g></g></g><g fill="#020bb5" fill-opacity="1"><g transform="translate(30.989663, 7.50307)"><g><path d="M 3.734375 -3.515625 L 3.734375 0 L 3 0 L 2.859375 -0.453125 L 2.8125 -0.453125 C 2.738281 -0.328125 2.644531 -0.226562 2.53125 -0.15625 C 2.414062 -0.0820312 2.289062 -0.03125 2.15625 0 C 2.019531 0.0390625 1.878906 0.0625 1.734375 0.0625 C 1.484375 0.0625 1.265625 0.0195312 1.078125 -0.0625 C 0.890625 -0.15625 0.742188 -0.296875 0.640625 -0.484375 C 0.535156 -0.671875 0.484375 -0.914062 0.484375 -1.21875 L 0.484375 -3.515625 L 1.4375 -3.515625 L 1.4375 -1.46875 C 1.4375 -1.207031 1.484375 -1.015625 1.578125 -0.890625 C 1.671875 -0.765625 1.816406 -0.703125 2.015625 -0.703125 C 2.203125 -0.703125 2.351562 -0.742188 2.46875 -0.828125 C 2.582031 -0.921875 2.660156 -1.050781 2.703125 -1.21875 C 2.742188 -1.394531 2.765625 -1.609375 2.765625 -1.859375 L 2.765625 -3.515625 Z M 3.734375 -3.515625 "/></g></g></g><g fill="#020bb5" fill-opacity="1"><g transform="translate(35.725691, 7.50307)"><g><path d="M 1.984375 -0.703125 C 2.085938 -0.703125 2.1875 -0.710938 2.28125 -0.734375 C 2.382812 -0.753906 2.488281 -0.78125 2.59375 -0.8125 L 2.59375 -0.09375 C 2.488281 -0.0507812 2.359375 -0.015625 2.203125 0.015625 C 2.054688 0.046875 1.890625 0.0625 1.703125 0.0625 C 1.492188 0.0625 1.304688 0.03125 1.140625 -0.03125 C 0.972656 -0.101562 0.84375 -0.222656 0.75 -0.390625 C 0.65625 -0.554688 0.609375 -0.789062 0.609375 -1.09375 L 0.609375 -2.796875 L 0.140625 -2.796875 L 0.140625 -3.203125 L 0.671875 -3.515625 L 0.953125 -4.265625 L 1.5625 -4.265625 L 1.5625 -3.515625 L 2.546875 -3.515625 L 2.546875 -2.796875 L 1.5625 -2.796875 L 1.5625 -1.09375 C 1.5625 -0.96875 1.597656 -0.867188 1.671875 -0.796875 C 1.753906 -0.734375 1.859375 -0.703125 1.984375 -0.703125 Z M 1.984375 -0.703125 "/></g></g></g><g fill="#020bb5" fill-opacity="1"><g transform="translate(39.024411, 7.50307)"><g><path d="M 1.46875 -3.515625 L 1.46875 0 L 0.5 0 L 0.5 -3.515625 Z M 0.984375 -4.890625 C 1.128906 -4.890625 1.25 -4.851562 1.34375 -4.78125 C 1.445312 -4.71875 1.5 -4.597656 1.5 -4.421875 C 1.5 -4.242188 1.445312 -4.117188 1.34375 -4.046875 C 1.25 -3.984375 1.128906 -3.953125 0.984375 -3.953125 C 0.835938 -3.953125 0.710938 -3.984375 0.609375 -4.046875 C 0.515625 -4.117188 0.46875 -4.242188 0.46875 -4.421875 C 0.46875 -4.597656 0.515625 -4.71875 0.609375 -4.78125 C 0.710938 -4.851562 0.835938 -4.890625 0.984375 -4.890625 Z M 0.984375 -4.890625 "/></g></g></g><g fill="#020bb5" fill-opacity="1"><g transform="translate(41.492826, 7.50307)"><g><path d="M 3.703125 -1.765625 C 3.703125 -1.472656 3.660156 -1.210938 3.578125 -0.984375 C 3.492188 -0.753906 3.378906 -0.5625 3.234375 -0.40625 C 3.085938 -0.25 2.90625 -0.128906 2.6875 -0.046875 C 2.476562 0.0234375 2.242188 0.0625 1.984375 0.0625 C 1.734375 0.0625 1.503906 0.0234375 1.296875 -0.046875 C 1.097656 -0.128906 0.921875 -0.25 0.765625 -0.40625 C 0.609375 -0.5625 0.488281 -0.753906 0.40625 -0.984375 C 0.332031 -1.210938 0.296875 -1.472656 0.296875 -1.765625 C 0.296875 -2.148438 0.363281 -2.476562 0.5 -2.75 C 0.632812 -3.019531 0.828125 -3.222656 1.078125 -3.359375 C 1.335938 -3.503906 1.644531 -3.578125 2 -3.578125 C 2.332031 -3.578125 2.625 -3.503906 2.875 -3.359375 C 3.132812 -3.222656 3.335938 -3.019531 3.484375 -2.75 C 3.628906 -2.476562 3.703125 -2.148438 3.703125 -1.765625 Z M 1.265625 -1.765625 C 1.265625 -1.535156 1.289062 -1.34375 1.34375 -1.1875 C 1.394531 -1.03125 1.472656 -0.910156 1.578125 -0.828125 C 1.679688 -0.742188 1.820312 -0.703125 2 -0.703125 C 2.164062 -0.703125 2.300781 -0.742188 2.40625 -0.828125 C 2.507812 -0.910156 2.585938 -1.03125 2.640625 -1.1875 C 2.691406 -1.34375 2.71875 -1.535156 2.71875 -1.765625 C 2.71875 -1.992188 2.691406 -2.1875 2.640625 -2.34375 C 2.585938 -2.5 2.507812 -2.613281 2.40625 -2.6875 C 2.300781 -2.769531 2.160156 -2.8125 1.984375 -2.8125 C 1.734375 -2.8125 1.550781 -2.722656 1.4375 -2.546875 C 1.320312 -2.367188 1.265625 -2.109375 1.265625 -1.765625 Z M 1.265625 -1.765625 "/></g></g></g><g fill="#020bb5" fill-opacity="1"><g transform="translate(45.983536, 7.50307)"><g><path d="M 2.5 -3.578125 C 2.875 -3.578125 3.175781 -3.472656 3.40625 -3.265625 C 3.632812 -3.066406 3.75 -2.742188 3.75 -2.296875 L 3.75 0 L 2.78125 0 L 2.78125 -2.046875 C 2.78125 -2.304688 2.734375 -2.5 2.640625 -2.625 C 2.554688 -2.75 2.414062 -2.8125 2.21875 -2.8125 C 1.925781 -2.8125 1.726562 -2.710938 1.625 -2.515625 C 1.519531 -2.316406 1.46875 -2.03125 1.46875 -1.65625 L 1.46875 0 L 0.5 0 L 0.5 -3.515625 L 1.234375 -3.515625 L 1.359375 -3.0625 L 1.421875 -3.0625 C 1.492188 -3.1875 1.582031 -3.285156 1.6875 -3.359375 C 1.800781 -3.429688 1.925781 -3.484375 2.0625 -3.515625 C 2.207031 -3.554688 2.351562 -3.578125 2.5 -3.578125 Z M 2.5 -3.578125 "/></g></g></g><g fill="#020bb5" fill-opacity="1"><g transform="translate(50.719563, 7.50307)"><g><path d="M 2.953125 -1.046875 C 2.953125 -0.804688 2.894531 -0.601562 2.78125 -0.4375 C 2.675781 -0.269531 2.507812 -0.144531 2.28125 -0.0625 C 2.0625 0.0195312 1.785156 0.0625 1.453125 0.0625 C 1.210938 0.0625 1.003906 0.046875 0.828125 0.015625 C 0.648438 -0.015625 0.472656 -0.0664062 0.296875 -0.140625 L 0.296875 -0.9375 C 0.484375 -0.851562 0.6875 -0.78125 0.90625 -0.71875 C 1.125 -0.664062 1.316406 -0.640625 1.484375 -0.640625 C 1.671875 -0.640625 1.804688 -0.664062 1.890625 -0.71875 C 1.972656 -0.78125 2.015625 -0.851562 2.015625 -0.9375 C 2.015625 -1 1.992188 -1.050781 1.953125 -1.09375 C 1.921875 -1.144531 1.851562 -1.195312 1.75 -1.25 C 1.644531 -1.3125 1.476562 -1.394531 1.25 -1.5 C 1.03125 -1.582031 0.847656 -1.671875 0.703125 -1.765625 C 0.566406 -1.867188 0.460938 -1.984375 0.390625 -2.109375 C 0.328125 -2.234375 0.296875 -2.394531 0.296875 -2.59375 C 0.296875 -2.925781 0.421875 -3.171875 0.671875 -3.328125 C 0.921875 -3.492188 1.257812 -3.578125 1.6875 -3.578125 C 1.90625 -3.578125 2.113281 -3.554688 2.3125 -3.515625 C 2.507812 -3.472656 2.710938 -3.398438 2.921875 -3.296875 L 2.625 -2.609375 C 2.445312 -2.679688 2.28125 -2.742188 2.125 -2.796875 C 1.976562 -2.847656 1.828125 -2.875 1.671875 -2.875 C 1.523438 -2.875 1.414062 -2.851562 1.34375 -2.8125 C 1.269531 -2.769531 1.234375 -2.710938 1.234375 -2.640625 C 1.234375 -2.585938 1.253906 -2.535156 1.296875 -2.484375 C 1.335938 -2.441406 1.410156 -2.394531 1.515625 -2.34375 C 1.617188 -2.289062 1.773438 -2.222656 1.984375 -2.140625 C 2.179688 -2.054688 2.351562 -1.96875 2.5 -1.875 C 2.644531 -1.789062 2.753906 -1.679688 2.828125 -1.546875 C 2.910156 -1.421875 2.953125 -1.253906 2.953125 -1.046875 Z M 2.953125 -1.046875 "/></g></g></g></g></g></g></g></g></g></g></g></svg>

























