<svg xmlns="http://www.w3.org/2000/svg" xmlns:xlink="http://www.w3.org/1999/xlink" width="60" zoomAndPan="magnify" viewBox="0 0 45 31.5" height="42" preserveAspectRatio="xMidYMid meet" version="1.0"><defs><g/><clipPath id="5055387eb0"><path d="M 0.351562 0 L 44.648438 0 L 44.648438 31.007812 L 0.351562 31.007812 Z M 0.351562 0 " clip-rule="nonzero"/></clipPath><clipPath id="060a368713"><path d="M 0.351562 0 L 44.648438 0 L 44.648438 31 L 0.351562 31 Z M 0.351562 0 " clip-rule="nonzero"/></clipPath><clipPath id="335f4458dc"><path d="M 0.351562 0 L 44.300781 0 L 44.300781 30.765625 L 0.351562 30.765625 Z M 0.351562 0 " clip-rule="nonzero"/></clipPath><clipPath id="8156b4bf46"><path d="M 1 5 L 44.648438 5 L 44.648438 21 L 1 21 Z M 1 5 " clip-rule="nonzero"/></clipPath><clipPath id="3c8f8fa524"><path d="M 4 0.328125 L 16.902344 0.328125 L 16.902344 15.554688 L 4 15.554688 Z M 4 0.328125 " clip-rule="nonzero"/></clipPath><clipPath id="e8a62b1905"><path d="M 0.808594 3 L 7 3 L 7 9 L 0.808594 9 Z M 0.808594 3 " clip-rule="nonzero"/></clipPath><clipPath id="6acdd6a57e"><path d="M 13 5 L 43.648438 5 L 43.648438 13 L 13 13 Z M 13 5 " clip-rule="nonzero"/></clipPath><clipPath id="010ad65a4d"><path d="M 0.527344 0.394531 L 5 0.394531 L 5 6 L 0.527344 6 Z M 0.527344 0.394531 " clip-rule="nonzero"/></clipPath><clipPath id="3ce9570a85"><path d="M 4 0.394531 L 9 0.394531 L 9 6 L 4 6 Z M 4 0.394531 " clip-rule="nonzero"/></clipPath><clipPath id="69162c46db"><path d="M 8 0.394531 L 13 0.394531 L 13 6 L 8 6 Z M 8 0.394531 " clip-rule="nonzero"/></clipPath><clipPath id="bceb3d8f52"><path d="M 12 0.394531 L 17 0.394531 L 17 6 L 12 6 Z M 12 0.394531 " clip-rule="nonzero"/></clipPath><clipPath id="ff0909f209"><path d="M 16 0.394531 L 21 0.394531 L 21 6 L 16 6 Z M 16 0.394531 " clip-rule="nonzero"/></clipPath><clipPath id="054fd32a23"><path d="M 20 0.394531 L 25 0.394531 L 25 6 L 20 6 Z M 20 0.394531 " clip-rule="nonzero"/></clipPath><clipPath id="2b886120c1"><path d="M 24 0.394531 L 29 0.394531 L 29 6 L 24 6 Z M 24 0.394531 " clip-rule="nonzero"/></clipPath><clipPath id="d72cc4c432"><rect x="0" width="31" y="0" height="8"/></clipPath><clipPath id="22cdd1adc4"><path d="M 14 10 L 42 10 L 42 15.554688 L 14 15.554688 Z M 14 10 " clip-rule="nonzero"/></clipPath><clipPath id="0299cbaced"><path d="M 25 2 L 27.640625 2 L 27.640625 4 L 25 4 Z M 25 2 " clip-rule="nonzero"/></clipPath><clipPath id="247a104591"><rect x="0" width="28" y="0" height="6"/></clipPath><clipPath id="302e6cc796"><rect x="0" width="44" y="0" height="16"/></clipPath><clipPath id="ec645710b9"><rect x="0" width="45" y="0" height="31"/></clipPath></defs><g clip-path="url(#5055387eb0)"><path fill="#ffffff" d="M 0.351562 0 L 44.648438 0 L 44.648438 31.007812 L 0.351562 31.007812 Z M 0.351562 0 " fill-opacity="1" fill-rule="nonzero"/></g><g clip-path="url(#060a368713)"><g transform="matrix(1, 0, 0, 1, 0, -0.000000000000002895)"><g clip-path="url(#ec645710b9)"><g clip-path="url(#335f4458dc)"><path fill="#ffffff" d="M 0.351562 0 L 44.300781 0 L 44.300781 30.765625 L 0.351562 30.765625 Z M 0.351562 0 " fill-opacity="1" fill-rule="nonzero"/></g><g clip-path="url(#8156b4bf46)"><g transform="matrix(1, 0, 0, 1, 1, 5)"><g clip-path="url(#302e6cc796)"><g clip-path="url(#3c8f8fa524)"><path fill="#020bb5" d="M 16.773438 2.429688 C 16.773438 3.585938 15.835938 4.527344 14.675781 4.527344 C 14.238281 4.527344 13.832031 4.390625 13.492188 4.164062 C 11.960938 5.109375 11.574219 6.3125 11.476562 6.875 C 11.808594 7.414062 11.996094 8.046875 11.996094 8.722656 C 11.996094 9.699219 11.601562 10.582031 10.964844 11.222656 C 10.984375 11.628906 11.152344 12.335938 11.960938 13.011719 C 12.089844 12.992188 12.230469 13 12.367188 13.027344 C 13.027344 13.167969 13.449219 13.816406 13.308594 14.476562 C 13.167969 15.136719 12.519531 15.554688 11.863281 15.417969 C 11.203125 15.277344 10.78125 14.628906 10.921875 13.96875 C 10.972656 13.71875 11.097656 13.503906 11.269531 13.339844 C 10.941406 12.417969 10.363281 12.039062 10.035156 11.894531 C 9.558594 12.132812 9.019531 12.269531 8.453125 12.269531 C 6.660156 12.269531 5.179688 10.941406 4.941406 9.214844 C 5.054688 9.207031 5.164062 9.183594 5.265625 9.136719 L 6.972656 8.410156 C 7.214844 8.304688 7.40625 8.109375 7.503906 7.863281 C 7.601562 7.617188 7.601562 7.34375 7.496094 7.101562 L 6.839844 5.566406 C 7.324219 5.316406 7.871094 5.175781 8.453125 5.175781 C 8.957031 5.175781 9.433594 5.285156 9.867188 5.472656 C 10.507812 5.34375 11.769531 4.867188 12.695312 3.121094 C 12.617188 2.90625 12.578125 2.671875 12.578125 2.429688 C 12.578125 1.269531 13.515625 0.328125 14.675781 0.328125 C 15.835938 0.328125 16.773438 1.269531 16.773438 2.429688 Z M 16.773438 2.429688 " fill-opacity="1" fill-rule="nonzero"/></g><g clip-path="url(#e8a62b1905)"><path fill="#bb2e2e" d="M 6.902344 7.355469 C 6.976562 7.53125 6.894531 7.738281 6.71875 7.8125 L 5.011719 8.542969 C 4.835938 8.617188 4.628906 8.535156 4.554688 8.359375 L 3.824219 6.652344 C 3.75 6.476562 3.832031 6.273438 4.007812 6.195312 L 5.710938 5.464844 C 5.890625 5.390625 6.09375 5.472656 6.171875 5.648438 Z M 4.804688 3.714844 C 4.765625 3.632812 4.667969 3.59375 4.585938 3.628906 L 3.777344 3.976562 C 3.695312 4.011719 3.65625 4.109375 3.691406 4.191406 L 4.035156 5 C 4.074219 5.085938 4.171875 5.125 4.253906 5.085938 L 5.0625 4.742188 C 5.144531 4.707031 5.183594 4.609375 5.148438 4.523438 Z M 3.355469 7.617188 C 3.324219 7.542969 3.234375 7.507812 3.160156 7.539062 L 2.4375 7.851562 C 2.363281 7.882812 2.328125 7.96875 2.359375 8.046875 L 2.667969 8.769531 C 2.699219 8.84375 2.789062 8.878906 2.863281 8.847656 L 3.585938 8.539062 C 3.660156 8.503906 3.695312 8.417969 3.664062 8.34375 Z M 2.621094 4.859375 C 2.566406 4.726562 2.414062 4.664062 2.28125 4.71875 L 1.003906 5.265625 C 0.871094 5.324219 0.808594 5.476562 0.867188 5.609375 L 1.414062 6.886719 C 1.46875 7.019531 1.625 7.082031 1.753906 7.023438 L 3.03125 6.476562 C 3.164062 6.421875 3.226562 6.265625 3.167969 6.132812 Z M 2.621094 4.859375 " fill-opacity="1" fill-rule="nonzero"/></g><g clip-path="url(#6acdd6a57e)"><g transform="matrix(1, 0, 0, 1, 13, 5)"><g clip-path="url(#d72cc4c432)"><g clip-path="url(#010ad65a4d)"><g fill="#020bb5" fill-opacity="1"><g transform="translate(0.800016, 5.539167)"><g><path d="M 0.125 -2.34375 C 0.125 -2.582031 0.144531 -2.816406 0.1875 -3.046875 C 0.226562 -3.273438 0.289062 -3.492188 0.375 -3.703125 C 0.46875 -3.910156 0.582031 -4.09375 0.71875 -4.25 C 0.851562 -4.414062 1.015625 -4.546875 1.203125 -4.640625 C 1.390625 -4.734375 1.597656 -4.78125 1.828125 -4.78125 C 1.953125 -4.78125 2.066406 -4.757812 2.171875 -4.71875 C 2.285156 -4.6875 2.398438 -4.65625 2.515625 -4.625 C 2.628906 -4.59375 2.757812 -4.578125 2.90625 -4.578125 C 3.019531 -4.578125 3.109375 -4.59375 3.171875 -4.625 C 3.234375 -4.65625 3.285156 -4.6875 3.328125 -4.71875 C 3.378906 -4.757812 3.425781 -4.78125 3.46875 -4.78125 C 3.53125 -4.78125 3.566406 -4.742188 3.578125 -4.671875 C 3.585938 -4.597656 3.578125 -4.507812 3.546875 -4.40625 C 3.523438 -4.300781 3.492188 -4.195312 3.453125 -4.09375 C 3.421875 -4.019531 3.375 -3.929688 3.3125 -3.828125 C 3.257812 -3.734375 3.1875 -3.648438 3.09375 -3.578125 C 3.007812 -3.503906 2.910156 -3.46875 2.796875 -3.46875 C 2.628906 -3.46875 2.476562 -3.484375 2.34375 -3.515625 C 2.21875 -3.554688 2.097656 -3.601562 1.984375 -3.65625 C 1.878906 -3.71875 1.773438 -3.773438 1.671875 -3.828125 C 1.578125 -3.890625 1.476562 -3.9375 1.375 -3.96875 C 1.28125 -4.007812 1.171875 -4.03125 1.046875 -4.03125 C 0.960938 -4.03125 0.894531 -4.007812 0.84375 -3.96875 C 0.800781 -3.925781 0.765625 -3.875 0.734375 -3.8125 C 0.703125 -3.75 0.679688 -3.6875 0.671875 -3.625 C 0.660156 -3.5625 0.65625 -3.507812 0.65625 -3.46875 C 0.65625 -3.445312 0.65625 -3.40625 0.65625 -3.34375 C 0.65625 -3.289062 0.65625 -3.226562 0.65625 -3.15625 C 0.65625 -3.09375 0.660156 -3.039062 0.671875 -3 C 0.691406 -2.957031 0.71875 -2.9375 0.75 -2.9375 C 0.789062 -2.9375 0.835938 -2.953125 0.890625 -2.984375 C 0.941406 -3.023438 1.003906 -3.066406 1.078125 -3.109375 C 1.160156 -3.148438 1.273438 -3.171875 1.421875 -3.171875 C 1.535156 -3.171875 1.644531 -3.148438 1.75 -3.109375 C 1.863281 -3.078125 1.972656 -3.035156 2.078125 -2.984375 C 2.179688 -2.929688 2.28125 -2.882812 2.375 -2.84375 C 2.476562 -2.800781 2.570312 -2.78125 2.65625 -2.78125 C 2.726562 -2.78125 2.785156 -2.796875 2.828125 -2.828125 C 2.867188 -2.867188 2.898438 -2.898438 2.921875 -2.921875 C 2.953125 -2.953125 2.976562 -2.96875 3 -2.96875 C 3.039062 -2.96875 3.070312 -2.941406 3.09375 -2.890625 C 3.113281 -2.835938 3.125 -2.773438 3.125 -2.703125 C 3.125 -2.628906 3.109375 -2.546875 3.078125 -2.453125 C 3.046875 -2.359375 3 -2.269531 2.9375 -2.1875 C 2.875 -2.101562 2.789062 -2.035156 2.6875 -1.984375 C 2.582031 -1.941406 2.457031 -1.921875 2.3125 -1.921875 C 2.175781 -1.921875 2.050781 -1.945312 1.9375 -2 C 1.820312 -2.0625 1.71875 -2.132812 1.625 -2.21875 C 1.539062 -2.300781 1.457031 -2.382812 1.375 -2.46875 C 1.289062 -2.550781 1.210938 -2.617188 1.140625 -2.671875 C 1.066406 -2.734375 0.988281 -2.765625 0.90625 -2.765625 C 0.863281 -2.765625 0.832031 -2.75 0.8125 -2.71875 C 0.800781 -2.6875 0.796875 -2.648438 0.796875 -2.609375 C 0.796875 -2.566406 0.800781 -2.53125 0.8125 -2.5 C 0.90625 -2.207031 1.035156 -1.953125 1.203125 -1.734375 C 1.367188 -1.515625 1.550781 -1.34375 1.75 -1.21875 C 1.957031 -1.09375 2.171875 -1.03125 2.390625 -1.03125 C 2.554688 -1.03125 2.691406 -1.050781 2.796875 -1.09375 C 2.910156 -1.144531 3 -1.203125 3.0625 -1.265625 C 3.132812 -1.335938 3.191406 -1.40625 3.234375 -1.46875 C 3.273438 -1.539062 3.3125 -1.597656 3.34375 -1.640625 C 3.382812 -1.691406 3.425781 -1.71875 3.46875 -1.71875 C 3.5 -1.71875 3.523438 -1.703125 3.546875 -1.671875 C 3.578125 -1.648438 3.59375 -1.582031 3.59375 -1.46875 C 3.59375 -1.3125 3.554688 -1.144531 3.484375 -0.96875 C 3.410156 -0.789062 3.304688 -0.617188 3.171875 -0.453125 C 3.046875 -0.296875 2.882812 -0.164062 2.6875 -0.0625 C 2.5 0.03125 2.273438 0.078125 2.015625 0.078125 C 1.753906 0.078125 1.507812 0.0234375 1.28125 -0.078125 C 1.050781 -0.179688 0.847656 -0.332031 0.671875 -0.53125 C 0.492188 -0.726562 0.359375 -0.976562 0.265625 -1.28125 C 0.171875 -1.59375 0.125 -1.945312 0.125 -2.34375 Z M 0.125 -2.34375 "/></g></g></g></g><g clip-path="url(#3ce9570a85)"><g fill="#020bb5" fill-opacity="1"><g transform="translate(4.799936, 5.539167)"><g><path d="M 2.546875 0 L 0.046875 0 C 0.109375 -0.0625 0.148438 -0.132812 0.171875 -0.21875 C 0.203125 -0.3125 0.21875 -0.425781 0.21875 -0.5625 L 0.21875 -4.140625 C 0.21875 -4.273438 0.203125 -4.382812 0.171875 -4.46875 C 0.148438 -4.5625 0.109375 -4.640625 0.046875 -4.703125 L 1.484375 -4.703125 C 1.617188 -4.703125 1.71875 -4.679688 1.78125 -4.640625 C 1.851562 -4.597656 1.90625 -4.539062 1.9375 -4.46875 C 1.96875 -4.40625 1.984375 -4.34375 1.984375 -4.28125 C 1.984375 -4.164062 1.945312 -4.046875 1.875 -3.921875 C 1.8125 -3.804688 1.726562 -3.6875 1.625 -3.5625 C 1.519531 -3.4375 1.410156 -3.300781 1.296875 -3.15625 C 1.179688 -3.019531 1.070312 -2.875 0.96875 -2.71875 C 0.863281 -2.570312 0.773438 -2.414062 0.703125 -2.25 C 0.640625 -2.09375 0.609375 -1.921875 0.609375 -1.734375 C 0.609375 -1.628906 0.625 -1.507812 0.65625 -1.375 C 0.695312 -1.25 0.75 -1.117188 0.8125 -0.984375 C 0.875 -0.847656 0.953125 -0.722656 1.046875 -0.609375 C 1.148438 -0.492188 1.265625 -0.398438 1.390625 -0.328125 C 1.523438 -0.265625 1.671875 -0.234375 1.828125 -0.234375 C 1.929688 -0.234375 2.03125 -0.25 2.125 -0.28125 C 2.21875 -0.3125 2.296875 -0.359375 2.359375 -0.421875 C 2.421875 -0.492188 2.453125 -0.578125 2.453125 -0.671875 C 2.453125 -0.796875 2.421875 -0.90625 2.359375 -1 C 2.304688 -1.09375 2.238281 -1.175781 2.15625 -1.25 C 2.082031 -1.320312 2.003906 -1.398438 1.921875 -1.484375 C 1.847656 -1.566406 1.785156 -1.660156 1.734375 -1.765625 C 1.679688 -1.878906 1.65625 -2.019531 1.65625 -2.1875 C 1.65625 -2.300781 1.679688 -2.410156 1.734375 -2.515625 C 1.796875 -2.617188 1.875 -2.703125 1.96875 -2.765625 C 2.0625 -2.835938 2.171875 -2.875 2.296875 -2.875 C 2.367188 -2.875 2.460938 -2.859375 2.578125 -2.828125 C 2.703125 -2.796875 2.820312 -2.753906 2.9375 -2.703125 C 3.0625 -2.660156 3.164062 -2.609375 3.25 -2.546875 C 3.332031 -2.484375 3.375 -2.414062 3.375 -2.34375 C 3.375 -2.257812 3.347656 -2.191406 3.296875 -2.140625 C 3.242188 -2.085938 3.175781 -2.039062 3.09375 -2 C 3.019531 -1.96875 2.9375 -1.9375 2.84375 -1.90625 C 2.757812 -1.882812 2.675781 -1.859375 2.59375 -1.828125 C 2.519531 -1.796875 2.457031 -1.753906 2.40625 -1.703125 C 2.363281 -1.660156 2.34375 -1.597656 2.34375 -1.515625 C 2.34375 -1.441406 2.367188 -1.378906 2.421875 -1.328125 C 2.472656 -1.273438 2.535156 -1.226562 2.609375 -1.1875 C 2.691406 -1.144531 2.773438 -1.101562 2.859375 -1.0625 C 2.953125 -1.019531 3.039062 -0.96875 3.125 -0.90625 C 3.207031 -0.84375 3.273438 -0.769531 3.328125 -0.6875 C 3.378906 -0.601562 3.40625 -0.503906 3.40625 -0.390625 C 3.40625 -0.273438 3.378906 -0.191406 3.328125 -0.140625 C 3.273438 -0.0859375 3.203125 -0.0507812 3.109375 -0.03125 C 3.023438 -0.0078125 2.929688 0 2.828125 0 C 2.734375 0 2.640625 0 2.546875 0 Z M 2.546875 0 "/></g></g></g></g><g clip-path="url(#69162c46db)"><g fill="#020bb5" fill-opacity="1"><g transform="translate(8.564572, 5.539167)"><g><path d="M 0.125 -2.34375 C 0.125 -2.582031 0.144531 -2.816406 0.1875 -3.046875 C 0.226562 -3.273438 0.289062 -3.492188 0.375 -3.703125 C 0.46875 -3.910156 0.582031 -4.09375 0.71875 -4.25 C 0.851562 -4.414062 1.015625 -4.546875 1.203125 -4.640625 C 1.390625 -4.734375 1.597656 -4.78125 1.828125 -4.78125 C 1.953125 -4.78125 2.066406 -4.757812 2.171875 -4.71875 C 2.285156 -4.6875 2.398438 -4.65625 2.515625 -4.625 C 2.628906 -4.59375 2.757812 -4.578125 2.90625 -4.578125 C 3.019531 -4.578125 3.109375 -4.59375 3.171875 -4.625 C 3.234375 -4.65625 3.285156 -4.6875 3.328125 -4.71875 C 3.378906 -4.757812 3.425781 -4.78125 3.46875 -4.78125 C 3.53125 -4.78125 3.566406 -4.742188 3.578125 -4.671875 C 3.585938 -4.597656 3.578125 -4.507812 3.546875 -4.40625 C 3.523438 -4.300781 3.492188 -4.195312 3.453125 -4.09375 C 3.421875 -4.019531 3.375 -3.929688 3.3125 -3.828125 C 3.257812 -3.734375 3.1875 -3.648438 3.09375 -3.578125 C 3.007812 -3.503906 2.910156 -3.46875 2.796875 -3.46875 C 2.628906 -3.46875 2.476562 -3.484375 2.34375 -3.515625 C 2.21875 -3.554688 2.097656 -3.601562 1.984375 -3.65625 C 1.878906 -3.71875 1.773438 -3.773438 1.671875 -3.828125 C 1.578125 -3.890625 1.476562 -3.9375 1.375 -3.96875 C 1.28125 -4.007812 1.171875 -4.03125 1.046875 -4.03125 C 0.960938 -4.03125 0.894531 -4.007812 0.84375 -3.96875 C 0.800781 -3.925781 0.765625 -3.875 0.734375 -3.8125 C 0.703125 -3.75 0.679688 -3.6875 0.671875 -3.625 C 0.660156 -3.5625 0.65625 -3.507812 0.65625 -3.46875 C 0.65625 -3.445312 0.65625 -3.40625 0.65625 -3.34375 C 0.65625 -3.289062 0.65625 -3.226562 0.65625 -3.15625 C 0.65625 -3.09375 0.660156 -3.039062 0.671875 -3 C 0.691406 -2.957031 0.71875 -2.9375 0.75 -2.9375 C 0.789062 -2.9375 0.835938 -2.953125 0.890625 -2.984375 C 0.941406 -3.023438 1.003906 -3.066406 1.078125 -3.109375 C 1.160156 -3.148438 1.273438 -3.171875 1.421875 -3.171875 C 1.535156 -3.171875 1.644531 -3.148438 1.75 -3.109375 C 1.863281 -3.078125 1.972656 -3.035156 2.078125 -2.984375 C 2.179688 -2.929688 2.28125 -2.882812 2.375 -2.84375 C 2.476562 -2.800781 2.570312 -2.78125 2.65625 -2.78125 C 2.726562 -2.78125 2.785156 -2.796875 2.828125 -2.828125 C 2.867188 -2.867188 2.898438 -2.898438 2.921875 -2.921875 C 2.953125 -2.953125 2.976562 -2.96875 3 -2.96875 C 3.039062 -2.96875 3.070312 -2.941406 3.09375 -2.890625 C 3.113281 -2.835938 3.125 -2.773438 3.125 -2.703125 C 3.125 -2.628906 3.109375 -2.546875 3.078125 -2.453125 C 3.046875 -2.359375 3 -2.269531 2.9375 -2.1875 C 2.875 -2.101562 2.789062 -2.035156 2.6875 -1.984375 C 2.582031 -1.941406 2.457031 -1.921875 2.3125 -1.921875 C 2.175781 -1.921875 2.050781 -1.945312 1.9375 -2 C 1.820312 -2.0625 1.71875 -2.132812 1.625 -2.21875 C 1.539062 -2.300781 1.457031 -2.382812 1.375 -2.46875 C 1.289062 -2.550781 1.210938 -2.617188 1.140625 -2.671875 C 1.066406 -2.734375 0.988281 -2.765625 0.90625 -2.765625 C 0.863281 -2.765625 0.832031 -2.75 0.8125 -2.71875 C 0.800781 -2.6875 0.796875 -2.648438 0.796875 -2.609375 C 0.796875 -2.566406 0.800781 -2.53125 0.8125 -2.5 C 0.90625 -2.207031 1.035156 -1.953125 1.203125 -1.734375 C 1.367188 -1.515625 1.550781 -1.34375 1.75 -1.21875 C 1.957031 -1.09375 2.171875 -1.03125 2.390625 -1.03125 C 2.554688 -1.03125 2.691406 -1.050781 2.796875 -1.09375 C 2.910156 -1.144531 3 -1.203125 3.0625 -1.265625 C 3.132812 -1.335938 3.191406 -1.40625 3.234375 -1.46875 C 3.273438 -1.539062 3.3125 -1.597656 3.34375 -1.640625 C 3.382812 -1.691406 3.425781 -1.71875 3.46875 -1.71875 C 3.5 -1.71875 3.523438 -1.703125 3.546875 -1.671875 C 3.578125 -1.648438 3.59375 -1.582031 3.59375 -1.46875 C 3.59375 -1.3125 3.554688 -1.144531 3.484375 -0.96875 C 3.410156 -0.789062 3.304688 -0.617188 3.171875 -0.453125 C 3.046875 -0.296875 2.882812 -0.164062 2.6875 -0.0625 C 2.5 0.03125 2.273438 0.078125 2.015625 0.078125 C 1.753906 0.078125 1.507812 0.0234375 1.28125 -0.078125 C 1.050781 -0.179688 0.847656 -0.332031 0.671875 -0.53125 C 0.492188 -0.726562 0.359375 -0.976562 0.265625 -1.28125 C 0.171875 -1.59375 0.125 -1.945312 0.125 -2.34375 Z M 0.125 -2.34375 "/></g></g></g></g><g clip-path="url(#bceb3d8f52)"><g fill="#bb2e2e" fill-opacity="1"><g transform="translate(12.566451, 5.539167)"><g><path d="M 0.046875 -1.046875 C 0.046875 -1.273438 0.0859375 -1.476562 0.171875 -1.65625 C 0.265625 -1.84375 0.382812 -2.007812 0.53125 -2.15625 C 0.6875 -2.3125 0.859375 -2.445312 1.046875 -2.5625 C 1.234375 -2.675781 1.425781 -2.78125 1.625 -2.875 C 1.832031 -2.96875 2.03125 -3.050781 2.21875 -3.125 C 2.40625 -3.207031 2.570312 -3.285156 2.71875 -3.359375 C 2.875 -3.441406 2.992188 -3.519531 3.078125 -3.59375 C 3.171875 -3.664062 3.21875 -3.75 3.21875 -3.84375 C 3.21875 -3.914062 3.1875 -3.96875 3.125 -4 C 3.070312 -4.03125 3 -4.046875 2.90625 -4.046875 C 2.757812 -4.046875 2.613281 -4.015625 2.46875 -3.953125 C 2.320312 -3.898438 2.171875 -3.832031 2.015625 -3.75 C 1.867188 -3.675781 1.707031 -3.609375 1.53125 -3.546875 C 1.363281 -3.492188 1.171875 -3.46875 0.953125 -3.46875 C 0.847656 -3.46875 0.75 -3.503906 0.65625 -3.578125 C 0.570312 -3.648438 0.5 -3.734375 0.4375 -3.828125 C 0.375 -3.929688 0.328125 -4.019531 0.296875 -4.09375 C 0.253906 -4.195312 0.222656 -4.300781 0.203125 -4.40625 C 0.179688 -4.507812 0.175781 -4.597656 0.1875 -4.671875 C 0.195312 -4.742188 0.226562 -4.78125 0.28125 -4.78125 C 0.332031 -4.78125 0.378906 -4.757812 0.421875 -4.71875 C 0.472656 -4.6875 0.53125 -4.65625 0.59375 -4.625 C 0.65625 -4.59375 0.738281 -4.578125 0.84375 -4.578125 C 0.957031 -4.578125 1.082031 -4.585938 1.21875 -4.609375 C 1.363281 -4.628906 1.507812 -4.648438 1.65625 -4.671875 C 1.8125 -4.703125 1.957031 -4.726562 2.09375 -4.75 C 2.226562 -4.769531 2.34375 -4.78125 2.4375 -4.78125 C 2.664062 -4.78125 2.847656 -4.75 2.984375 -4.6875 C 3.117188 -4.632812 3.222656 -4.566406 3.296875 -4.484375 C 3.378906 -4.398438 3.4375 -4.3125 3.46875 -4.21875 C 3.5 -4.132812 3.515625 -4.0625 3.515625 -4 C 3.515625 -3.875 3.484375 -3.75 3.421875 -3.625 C 3.359375 -3.507812 3.28125 -3.390625 3.1875 -3.265625 C 3.09375 -3.148438 2.988281 -3.035156 2.875 -2.921875 C 2.769531 -2.816406 2.671875 -2.710938 2.578125 -2.609375 C 2.484375 -2.515625 2.410156 -2.425781 2.359375 -2.34375 C 2.179688 -2.15625 2 -1.957031 1.8125 -1.75 C 1.632812 -1.550781 1.460938 -1.363281 1.296875 -1.1875 C 1.140625 -1.019531 1.015625 -0.867188 0.921875 -0.734375 C 0.828125 -0.597656 0.78125 -0.492188 0.78125 -0.421875 C 0.78125 -0.367188 0.796875 -0.320312 0.828125 -0.28125 C 0.867188 -0.25 0.914062 -0.234375 0.96875 -0.234375 C 1.09375 -0.234375 1.21875 -0.265625 1.34375 -0.328125 C 1.476562 -0.398438 1.609375 -0.488281 1.734375 -0.59375 C 1.867188 -0.695312 2.003906 -0.796875 2.140625 -0.890625 C 2.285156 -0.992188 2.425781 -1.078125 2.5625 -1.140625 C 2.707031 -1.210938 2.863281 -1.25 3.03125 -1.25 C 3.101562 -1.25 3.175781 -1.234375 3.25 -1.203125 C 3.320312 -1.179688 3.382812 -1.140625 3.4375 -1.078125 C 3.488281 -1.023438 3.515625 -0.960938 3.515625 -0.890625 L 3.515625 0 L 0.671875 0 C 0.554688 0 0.457031 -0.03125 0.375 -0.09375 C 0.300781 -0.15625 0.238281 -0.238281 0.1875 -0.34375 C 0.132812 -0.445312 0.0976562 -0.554688 0.078125 -0.671875 C 0.0546875 -0.796875 0.046875 -0.921875 0.046875 -1.046875 Z M 0.046875 -1.046875 "/></g></g></g></g><g clip-path="url(#ff0909f209)"><g fill="#020bb5" fill-opacity="1"><g transform="translate(16.497923, 5.539167)"><g><path d="M 0.125 -2.34375 C 0.125 -2.582031 0.144531 -2.816406 0.1875 -3.046875 C 0.226562 -3.273438 0.289062 -3.492188 0.375 -3.703125 C 0.46875 -3.910156 0.582031 -4.09375 0.71875 -4.25 C 0.851562 -4.414062 1.015625 -4.546875 1.203125 -4.640625 C 1.390625 -4.734375 1.597656 -4.78125 1.828125 -4.78125 C 1.953125 -4.78125 2.066406 -4.757812 2.171875 -4.71875 C 2.285156 -4.6875 2.398438 -4.65625 2.515625 -4.625 C 2.628906 -4.59375 2.757812 -4.578125 2.90625 -4.578125 C 3.019531 -4.578125 3.109375 -4.59375 3.171875 -4.625 C 3.234375 -4.65625 3.285156 -4.6875 3.328125 -4.71875 C 3.378906 -4.757812 3.425781 -4.78125 3.46875 -4.78125 C 3.53125 -4.78125 3.566406 -4.742188 3.578125 -4.671875 C 3.585938 -4.597656 3.578125 -4.507812 3.546875 -4.40625 C 3.523438 -4.300781 3.492188 -4.195312 3.453125 -4.09375 C 3.421875 -4.019531 3.375 -3.929688 3.3125 -3.828125 C 3.257812 -3.734375 3.1875 -3.648438 3.09375 -3.578125 C 3.007812 -3.503906 2.910156 -3.46875 2.796875 -3.46875 C 2.628906 -3.46875 2.476562 -3.484375 2.34375 -3.515625 C 2.21875 -3.554688 2.097656 -3.601562 1.984375 -3.65625 C 1.878906 -3.71875 1.773438 -3.773438 1.671875 -3.828125 C 1.578125 -3.890625 1.476562 -3.9375 1.375 -3.96875 C 1.28125 -4.007812 1.171875 -4.03125 1.046875 -4.03125 C 0.960938 -4.03125 0.894531 -4.007812 0.84375 -3.96875 C 0.800781 -3.925781 0.765625 -3.875 0.734375 -3.8125 C 0.703125 -3.75 0.679688 -3.6875 0.671875 -3.625 C 0.660156 -3.5625 0.65625 -3.507812 0.65625 -3.46875 C 0.65625 -3.445312 0.65625 -3.40625 0.65625 -3.34375 C 0.65625 -3.289062 0.65625 -3.226562 0.65625 -3.15625 C 0.65625 -3.09375 0.660156 -3.039062 0.671875 -3 C 0.691406 -2.957031 0.71875 -2.9375 0.75 -2.9375 C 0.789062 -2.9375 0.835938 -2.953125 0.890625 -2.984375 C 0.941406 -3.023438 1.003906 -3.066406 1.078125 -3.109375 C 1.160156 -3.148438 1.273438 -3.171875 1.421875 -3.171875 C 1.535156 -3.171875 1.644531 -3.148438 1.75 -3.109375 C 1.863281 -3.078125 1.972656 -3.035156 2.078125 -2.984375 C 2.179688 -2.929688 2.28125 -2.882812 2.375 -2.84375 C 2.476562 -2.800781 2.570312 -2.78125 2.65625 -2.78125 C 2.726562 -2.78125 2.785156 -2.796875 2.828125 -2.828125 C 2.867188 -2.867188 2.898438 -2.898438 2.921875 -2.921875 C 2.953125 -2.953125 2.976562 -2.96875 3 -2.96875 C 3.039062 -2.96875 3.070312 -2.941406 3.09375 -2.890625 C 3.113281 -2.835938 3.125 -2.773438 3.125 -2.703125 C 3.125 -2.628906 3.109375 -2.546875 3.078125 -2.453125 C 3.046875 -2.359375 3 -2.269531 2.9375 -2.1875 C 2.875 -2.101562 2.789062 -2.035156 2.6875 -1.984375 C 2.582031 -1.941406 2.457031 -1.921875 2.3125 -1.921875 C 2.175781 -1.921875 2.050781 -1.945312 1.9375 -2 C 1.820312 -2.0625 1.71875 -2.132812 1.625 -2.21875 C 1.539062 -2.300781 1.457031 -2.382812 1.375 -2.46875 C 1.289062 -2.550781 1.210938 -2.617188 1.140625 -2.671875 C 1.066406 -2.734375 0.988281 -2.765625 0.90625 -2.765625 C 0.863281 -2.765625 0.832031 -2.75 0.8125 -2.71875 C 0.800781 -2.6875 0.796875 -2.648438 0.796875 -2.609375 C 0.796875 -2.566406 0.800781 -2.53125 0.8125 -2.5 C 0.90625 -2.207031 1.035156 -1.953125 1.203125 -1.734375 C 1.367188 -1.515625 1.550781 -1.34375 1.75 -1.21875 C 1.957031 -1.09375 2.171875 -1.03125 2.390625 -1.03125 C 2.554688 -1.03125 2.691406 -1.050781 2.796875 -1.09375 C 2.910156 -1.144531 3 -1.203125 3.0625 -1.265625 C 3.132812 -1.335938 3.191406 -1.40625 3.234375 -1.46875 C 3.273438 -1.539062 3.3125 -1.597656 3.34375 -1.640625 C 3.382812 -1.691406 3.425781 -1.71875 3.46875 -1.71875 C 3.5 -1.71875 3.523438 -1.703125 3.546875 -1.671875 C 3.578125 -1.648438 3.59375 -1.582031 3.59375 -1.46875 C 3.59375 -1.3125 3.554688 -1.144531 3.484375 -0.96875 C 3.410156 -0.789062 3.304688 -0.617188 3.171875 -0.453125 C 3.046875 -0.296875 2.882812 -0.164062 2.6875 -0.0625 C 2.5 0.03125 2.273438 0.078125 2.015625 0.078125 C 1.753906 0.078125 1.507812 0.0234375 1.28125 -0.078125 C 1.050781 -0.179688 0.847656 -0.332031 0.671875 -0.53125 C 0.492188 -0.726562 0.359375 -0.976562 0.265625 -1.28125 C 0.171875 -1.59375 0.125 -1.945312 0.125 -2.34375 Z M 0.125 -2.34375 "/></g></g></g></g><g clip-path="url(#054fd32a23)"><g fill="#020bb5" fill-opacity="1"><g transform="translate(20.497842, 5.539167)"><g><path d="M 0.046875 0 C 0.109375 -0.0625 0.148438 -0.132812 0.171875 -0.21875 C 0.203125 -0.3125 0.21875 -0.425781 0.21875 -0.5625 L 0.21875 -4.140625 C 0.21875 -4.273438 0.203125 -4.382812 0.171875 -4.46875 C 0.148438 -4.5625 0.109375 -4.640625 0.046875 -4.703125 L 1.453125 -4.703125 C 1.535156 -4.703125 1.601562 -4.6875 1.65625 -4.65625 C 1.71875 -4.625 1.773438 -4.5625 1.828125 -4.46875 C 1.890625 -4.375 1.953125 -4.234375 2.015625 -4.046875 C 2.085938 -3.859375 2.179688 -3.609375 2.296875 -3.296875 L 2.734375 -1.96875 C 2.773438 -1.84375 2.816406 -1.71875 2.859375 -1.59375 C 2.898438 -1.46875 2.941406 -1.351562 2.984375 -1.25 C 3.023438 -1.144531 3.066406 -1.054688 3.109375 -0.984375 C 3.160156 -0.921875 3.207031 -0.890625 3.25 -0.890625 C 3.300781 -0.890625 3.335938 -0.914062 3.359375 -0.96875 C 3.378906 -1.03125 3.394531 -1.097656 3.40625 -1.171875 C 3.414062 -1.253906 3.421875 -1.332031 3.421875 -1.40625 C 3.421875 -1.707031 3.382812 -1.976562 3.3125 -2.21875 C 3.238281 -2.46875 3.148438 -2.6875 3.046875 -2.875 C 2.941406 -3.070312 2.832031 -3.25 2.71875 -3.40625 C 2.613281 -3.570312 2.523438 -3.726562 2.453125 -3.875 C 2.378906 -4.019531 2.34375 -4.160156 2.34375 -4.296875 C 2.34375 -4.429688 2.394531 -4.53125 2.5 -4.59375 C 2.613281 -4.664062 2.738281 -4.703125 2.875 -4.703125 L 3.859375 -4.703125 C 3.796875 -4.640625 3.75 -4.5625 3.71875 -4.46875 C 3.695312 -4.382812 3.6875 -4.273438 3.6875 -4.140625 L 3.6875 -0.5625 C 3.6875 -0.425781 3.695312 -0.3125 3.71875 -0.21875 C 3.75 -0.132812 3.796875 -0.0625 3.859375 0 L 2.625 0 C 2.488281 0 2.367188 -0.03125 2.265625 -0.09375 C 2.171875 -0.164062 2.085938 -0.257812 2.015625 -0.375 C 1.953125 -0.488281 1.894531 -0.617188 1.84375 -0.765625 C 1.789062 -0.910156 1.738281 -1.066406 1.6875 -1.234375 C 1.65625 -1.328125 1.613281 -1.441406 1.5625 -1.578125 C 1.519531 -1.710938 1.472656 -1.851562 1.421875 -2 C 1.367188 -2.144531 1.316406 -2.28125 1.265625 -2.40625 C 1.222656 -2.539062 1.191406 -2.648438 1.171875 -2.734375 C 1.128906 -2.859375 1.085938 -2.984375 1.046875 -3.109375 C 1.003906 -3.234375 0.957031 -3.347656 0.90625 -3.453125 C 0.863281 -3.554688 0.820312 -3.640625 0.78125 -3.703125 C 0.738281 -3.773438 0.695312 -3.8125 0.65625 -3.8125 C 0.601562 -3.8125 0.566406 -3.78125 0.546875 -3.71875 C 0.523438 -3.664062 0.507812 -3.597656 0.5 -3.515625 C 0.488281 -3.441406 0.484375 -3.367188 0.484375 -3.296875 C 0.484375 -2.992188 0.519531 -2.71875 0.59375 -2.46875 C 0.664062 -2.226562 0.753906 -2.007812 0.859375 -1.8125 C 0.960938 -1.625 1.066406 -1.445312 1.171875 -1.28125 C 1.273438 -1.125 1.363281 -0.972656 1.4375 -0.828125 C 1.507812 -0.679688 1.546875 -0.539062 1.546875 -0.40625 C 1.546875 -0.269531 1.492188 -0.164062 1.390625 -0.09375 C 1.285156 -0.03125 1.164062 0 1.03125 0 Z M 0.046875 0 "/></g></g></g></g><g clip-path="url(#2b886120c1)"><g fill="#020bb5" fill-opacity="1"><g transform="translate(24.718926, 5.539167)"><g><path d="M 0.75 -3.5625 C 0.65625 -3.75 0.5625 -3.921875 0.46875 -4.078125 C 0.382812 -4.242188 0.300781 -4.382812 0.21875 -4.5 C 0.144531 -4.613281 0.0703125 -4.679688 0 -4.703125 L 1.875 -4.703125 C 1.832031 -4.691406 1.800781 -4.660156 1.78125 -4.609375 C 1.769531 -4.554688 1.765625 -4.5 1.765625 -4.4375 C 1.773438 -4.382812 1.789062 -4.34375 1.8125 -4.3125 C 1.875 -4.164062 1.925781 -4.050781 1.96875 -3.96875 C 2.007812 -3.882812 2.039062 -3.816406 2.0625 -3.765625 C 2.082031 -3.710938 2.101562 -3.664062 2.125 -3.625 C 2.144531 -3.59375 2.160156 -3.554688 2.171875 -3.515625 C 2.222656 -3.421875 2.269531 -3.320312 2.3125 -3.21875 C 2.351562 -3.113281 2.394531 -3.015625 2.4375 -2.921875 C 2.488281 -2.828125 2.535156 -2.75 2.578125 -2.6875 C 2.617188 -2.632812 2.65625 -2.609375 2.6875 -2.609375 C 2.707031 -2.609375 2.726562 -2.625 2.75 -2.65625 C 2.769531 -2.695312 2.785156 -2.738281 2.796875 -2.78125 C 2.816406 -2.832031 2.828125 -2.875 2.828125 -2.90625 C 2.828125 -2.9375 2.828125 -2.953125 2.828125 -2.953125 C 2.828125 -3.078125 2.804688 -3.195312 2.765625 -3.3125 C 2.722656 -3.425781 2.671875 -3.539062 2.609375 -3.65625 C 2.554688 -3.769531 2.507812 -3.878906 2.46875 -3.984375 C 2.425781 -4.085938 2.40625 -4.1875 2.40625 -4.28125 C 2.40625 -4.382812 2.425781 -4.476562 2.46875 -4.5625 C 2.507812 -4.65625 2.582031 -4.703125 2.6875 -4.703125 L 4.0625 -4.703125 C 4.019531 -4.691406 3.960938 -4.632812 3.890625 -4.53125 C 3.816406 -4.425781 3.738281 -4.296875 3.65625 -4.140625 C 3.582031 -3.984375 3.503906 -3.8125 3.421875 -3.625 C 3.335938 -3.4375 3.257812 -3.253906 3.1875 -3.078125 C 3.113281 -2.910156 3.050781 -2.757812 3 -2.625 C 2.945312 -2.5 2.910156 -2.40625 2.890625 -2.34375 C 2.867188 -2.3125 2.851562 -2.285156 2.84375 -2.265625 C 2.84375 -2.242188 2.84375 -2.21875 2.84375 -2.1875 C 2.84375 -2.15625 2.859375 -2.097656 2.890625 -2.015625 C 2.921875 -1.941406 2.960938 -1.851562 3.015625 -1.75 C 3.066406 -1.644531 3.117188 -1.539062 3.171875 -1.4375 C 3.234375 -1.332031 3.285156 -1.234375 3.328125 -1.140625 C 3.429688 -0.953125 3.523438 -0.773438 3.609375 -0.609375 C 3.703125 -0.453125 3.789062 -0.316406 3.875 -0.203125 C 3.957031 -0.0976562 4.03125 -0.03125 4.09375 0 L 2.21875 0 C 2.257812 -0.0195312 2.285156 -0.0507812 2.296875 -0.09375 C 2.316406 -0.144531 2.320312 -0.195312 2.3125 -0.25 C 2.300781 -0.3125 2.289062 -0.359375 2.28125 -0.390625 C 2.21875 -0.535156 2.164062 -0.648438 2.125 -0.734375 C 2.082031 -0.816406 2.050781 -0.882812 2.03125 -0.9375 C 2.007812 -0.988281 1.988281 -1.03125 1.96875 -1.0625 C 1.945312 -1.101562 1.929688 -1.144531 1.921875 -1.1875 C 1.878906 -1.28125 1.832031 -1.378906 1.78125 -1.484375 C 1.738281 -1.585938 1.691406 -1.6875 1.640625 -1.78125 C 1.597656 -1.875 1.554688 -1.945312 1.515625 -2 C 1.472656 -2.0625 1.4375 -2.09375 1.40625 -2.09375 C 1.382812 -2.09375 1.363281 -2.070312 1.34375 -2.03125 C 1.320312 -2 1.300781 -1.957031 1.28125 -1.90625 C 1.269531 -1.863281 1.257812 -1.828125 1.25 -1.796875 C 1.25 -1.765625 1.25 -1.75 1.25 -1.75 C 1.25 -1.625 1.269531 -1.503906 1.3125 -1.390625 C 1.363281 -1.273438 1.414062 -1.160156 1.46875 -1.046875 C 1.53125 -0.929688 1.582031 -0.820312 1.625 -0.71875 C 1.664062 -0.613281 1.6875 -0.515625 1.6875 -0.421875 C 1.6875 -0.316406 1.664062 -0.21875 1.625 -0.125 C 1.582031 -0.0390625 1.507812 0 1.40625 0 L 0.03125 0 C 0.0703125 -0.0078125 0.128906 -0.0664062 0.203125 -0.171875 C 0.273438 -0.273438 0.347656 -0.40625 0.421875 -0.5625 C 0.503906 -0.71875 0.585938 -0.890625 0.671875 -1.078125 C 0.753906 -1.265625 0.832031 -1.441406 0.90625 -1.609375 C 0.976562 -1.785156 1.039062 -1.9375 1.09375 -2.0625 C 1.144531 -2.195312 1.179688 -2.289062 1.203125 -2.34375 C 1.222656 -2.40625 1.21875 -2.488281 1.1875 -2.59375 C 1.15625 -2.695312 1.113281 -2.8125 1.0625 -2.9375 C 1.007812 -3.0625 0.953125 -3.179688 0.890625 -3.296875 C 0.828125 -3.410156 0.78125 -3.5 0.75 -3.5625 Z M 0.75 -3.5625 "/></g></g></g></g><g fill="#020bb5" fill-opacity="1"><g transform="translate(29.129466, 5.539167)"><g/></g></g></g></g></g><g clip-path="url(#22cdd1adc4)"><g transform="matrix(1, 0, 0, 1, 14, 10)"><g clip-path="url(#247a104591)"><g fill="#020bb5" fill-opacity="1"><g transform="translate(0.191305, 3.844828)"><g><path d="M 1.1875 0 L 0.703125 0 L 0.703125 -1.921875 L 0.0625 -1.921875 L 0.0625 -2.328125 L 1.828125 -2.328125 L 1.828125 -1.921875 L 1.1875 -1.921875 Z M 1.1875 0 "/></g></g></g><g fill="#020bb5" fill-opacity="1"><g transform="translate(2.338628, 3.844828)"><g><path d="M 0.984375 -1.8125 C 1.148438 -1.8125 1.289062 -1.78125 1.40625 -1.71875 C 1.53125 -1.65625 1.625 -1.5625 1.6875 -1.4375 C 1.757812 -1.320312 1.796875 -1.175781 1.796875 -1 L 1.796875 -0.765625 L 0.640625 -0.765625 C 0.640625 -0.628906 0.675781 -0.519531 0.75 -0.4375 C 0.832031 -0.363281 0.941406 -0.328125 1.078125 -0.328125 C 1.191406 -0.328125 1.296875 -0.335938 1.390625 -0.359375 C 1.484375 -0.390625 1.582031 -0.425781 1.6875 -0.46875 L 1.6875 -0.09375 C 1.601562 -0.0507812 1.507812 -0.0195312 1.40625 0 C 1.3125 0.0195312 1.195312 0.03125 1.0625 0.03125 C 0.882812 0.03125 0.722656 0 0.578125 -0.0625 C 0.441406 -0.132812 0.332031 -0.238281 0.25 -0.375 C 0.175781 -0.507812 0.140625 -0.675781 0.140625 -0.875 C 0.140625 -1.082031 0.175781 -1.253906 0.25 -1.390625 C 0.320312 -1.535156 0.421875 -1.640625 0.546875 -1.703125 C 0.671875 -1.773438 0.816406 -1.8125 0.984375 -1.8125 Z M 1 -1.46875 C 0.894531 -1.46875 0.8125 -1.4375 0.75 -1.375 C 0.695312 -1.3125 0.664062 -1.21875 0.65625 -1.09375 L 1.328125 -1.09375 C 1.328125 -1.164062 1.3125 -1.226562 1.28125 -1.28125 C 1.257812 -1.34375 1.222656 -1.390625 1.171875 -1.421875 C 1.128906 -1.453125 1.070312 -1.46875 1 -1.46875 Z M 1 -1.46875 "/></g></g></g><g fill="#020bb5" fill-opacity="1"><g transform="translate(4.524242, 3.844828)"><g><path d="M 0.984375 0.03125 C 0.804688 0.03125 0.65625 0 0.53125 -0.0625 C 0.40625 -0.125 0.304688 -0.222656 0.234375 -0.359375 C 0.171875 -0.492188 0.140625 -0.664062 0.140625 -0.875 C 0.140625 -1.09375 0.175781 -1.269531 0.25 -1.40625 C 0.332031 -1.550781 0.4375 -1.65625 0.5625 -1.71875 C 0.695312 -1.78125 0.847656 -1.8125 1.015625 -1.8125 C 1.140625 -1.8125 1.242188 -1.800781 1.328125 -1.78125 C 1.421875 -1.757812 1.503906 -1.726562 1.578125 -1.6875 L 1.4375 -1.3125 C 1.351562 -1.34375 1.28125 -1.367188 1.21875 -1.390625 C 1.15625 -1.410156 1.085938 -1.421875 1.015625 -1.421875 C 0.929688 -1.421875 0.859375 -1.398438 0.796875 -1.359375 C 0.742188 -1.316406 0.703125 -1.253906 0.671875 -1.171875 C 0.648438 -1.097656 0.640625 -1.003906 0.640625 -0.890625 C 0.640625 -0.765625 0.65625 -0.660156 0.6875 -0.578125 C 0.71875 -0.503906 0.757812 -0.445312 0.8125 -0.40625 C 0.875 -0.375 0.941406 -0.359375 1.015625 -0.359375 C 1.117188 -0.359375 1.207031 -0.367188 1.28125 -0.390625 C 1.363281 -0.421875 1.441406 -0.460938 1.515625 -0.515625 L 1.515625 -0.09375 C 1.441406 -0.0507812 1.363281 -0.0195312 1.28125 0 C 1.207031 0.0195312 1.109375 0.03125 0.984375 0.03125 Z M 0.984375 0.03125 "/></g></g></g><g fill="#020bb5" fill-opacity="1"><g transform="translate(6.459362, 3.844828)"><g><path d="M 0.734375 -2.484375 L 0.734375 -1.96875 C 0.734375 -1.882812 0.726562 -1.800781 0.71875 -1.71875 C 0.71875 -1.644531 0.71875 -1.585938 0.71875 -1.546875 L 0.75 -1.546875 C 0.78125 -1.609375 0.820312 -1.660156 0.875 -1.703125 C 0.925781 -1.742188 0.984375 -1.769531 1.046875 -1.78125 C 1.117188 -1.800781 1.191406 -1.8125 1.265625 -1.8125 C 1.390625 -1.8125 1.5 -1.789062 1.59375 -1.75 C 1.6875 -1.707031 1.757812 -1.632812 1.8125 -1.53125 C 1.875 -1.4375 1.90625 -1.3125 1.90625 -1.15625 L 1.90625 0 L 1.421875 0 L 1.421875 -1.046875 C 1.421875 -1.171875 1.394531 -1.265625 1.34375 -1.328125 C 1.300781 -1.390625 1.226562 -1.421875 1.125 -1.421875 C 1.03125 -1.421875 0.953125 -1.398438 0.890625 -1.359375 C 0.835938 -1.316406 0.796875 -1.25 0.765625 -1.15625 C 0.742188 -1.070312 0.734375 -0.96875 0.734375 -0.84375 L 0.734375 0 L 0.25 0 L 0.25 -2.484375 Z M 0.734375 -2.484375 "/></g></g></g><g fill="#020bb5" fill-opacity="1"><g transform="translate(8.861967, 3.844828)"><g/></g></g><g fill="#020bb5" fill-opacity="1"><g transform="translate(9.965819, 3.844828)"><g><path d="M 1.671875 -0.640625 C 1.671875 -0.503906 1.632812 -0.382812 1.5625 -0.28125 C 1.5 -0.1875 1.398438 -0.109375 1.265625 -0.046875 C 1.140625 0.00390625 0.988281 0.03125 0.8125 0.03125 C 0.726562 0.03125 0.644531 0.0234375 0.5625 0.015625 C 0.488281 0.00390625 0.414062 -0.0078125 0.34375 -0.03125 C 0.28125 -0.0507812 0.21875 -0.078125 0.15625 -0.109375 L 0.15625 -0.5625 C 0.257812 -0.519531 0.367188 -0.476562 0.484375 -0.4375 C 0.609375 -0.394531 0.726562 -0.375 0.84375 -0.375 C 0.925781 -0.375 0.992188 -0.382812 1.046875 -0.40625 C 1.097656 -0.425781 1.132812 -0.453125 1.15625 -0.484375 C 1.175781 -0.523438 1.1875 -0.570312 1.1875 -0.625 C 1.1875 -0.6875 1.164062 -0.734375 1.125 -0.765625 C 1.082031 -0.804688 1.023438 -0.84375 0.953125 -0.875 C 0.890625 -0.914062 0.816406 -0.957031 0.734375 -1 C 0.679688 -1.03125 0.617188 -1.0625 0.546875 -1.09375 C 0.484375 -1.132812 0.421875 -1.179688 0.359375 -1.234375 C 0.304688 -1.285156 0.257812 -1.347656 0.21875 -1.421875 C 0.1875 -1.503906 0.171875 -1.597656 0.171875 -1.703125 C 0.171875 -1.835938 0.203125 -1.953125 0.265625 -2.046875 C 0.335938 -2.148438 0.429688 -2.226562 0.546875 -2.28125 C 0.660156 -2.332031 0.800781 -2.359375 0.96875 -2.359375 C 1.082031 -2.359375 1.195312 -2.34375 1.3125 -2.3125 C 1.425781 -2.289062 1.539062 -2.253906 1.65625 -2.203125 L 1.5 -1.8125 C 1.394531 -1.851562 1.296875 -1.882812 1.203125 -1.90625 C 1.117188 -1.9375 1.035156 -1.953125 0.953125 -1.953125 C 0.890625 -1.953125 0.835938 -1.941406 0.796875 -1.921875 C 0.753906 -1.898438 0.71875 -1.867188 0.6875 -1.828125 C 0.664062 -1.796875 0.65625 -1.757812 0.65625 -1.71875 C 0.65625 -1.664062 0.671875 -1.617188 0.703125 -1.578125 C 0.734375 -1.535156 0.78125 -1.5 0.84375 -1.46875 C 0.914062 -1.4375 1 -1.394531 1.09375 -1.34375 C 1.21875 -1.289062 1.320312 -1.234375 1.40625 -1.171875 C 1.488281 -1.109375 1.550781 -1.035156 1.59375 -0.953125 C 1.644531 -0.867188 1.671875 -0.765625 1.671875 -0.640625 Z M 1.671875 -0.640625 "/></g></g></g><g fill="#020bb5" fill-opacity="1"><g transform="translate(12.020601, 3.844828)"><g><path d="M 1.875 -0.890625 C 1.875 -0.742188 1.851562 -0.613281 1.8125 -0.5 C 1.769531 -0.382812 1.710938 -0.285156 1.640625 -0.203125 C 1.566406 -0.128906 1.472656 -0.0703125 1.359375 -0.03125 C 1.253906 0.0078125 1.132812 0.03125 1 0.03125 C 0.875 0.03125 0.757812 0.0078125 0.65625 -0.03125 C 0.550781 -0.0703125 0.457031 -0.128906 0.375 -0.203125 C 0.300781 -0.285156 0.242188 -0.382812 0.203125 -0.5 C 0.160156 -0.613281 0.140625 -0.742188 0.140625 -0.890625 C 0.140625 -1.085938 0.175781 -1.253906 0.25 -1.390625 C 0.320312 -1.535156 0.421875 -1.640625 0.546875 -1.703125 C 0.679688 -1.773438 0.835938 -1.8125 1.015625 -1.8125 C 1.179688 -1.8125 1.328125 -1.773438 1.453125 -1.703125 C 1.585938 -1.640625 1.691406 -1.535156 1.765625 -1.390625 C 1.835938 -1.253906 1.875 -1.085938 1.875 -0.890625 Z M 0.640625 -0.890625 C 0.640625 -0.773438 0.648438 -0.675781 0.671875 -0.59375 C 0.703125 -0.519531 0.742188 -0.460938 0.796875 -0.421875 C 0.847656 -0.378906 0.921875 -0.359375 1.015625 -0.359375 C 1.097656 -0.359375 1.164062 -0.378906 1.21875 -0.421875 C 1.269531 -0.460938 1.304688 -0.519531 1.328125 -0.59375 C 1.359375 -0.675781 1.375 -0.773438 1.375 -0.890625 C 1.375 -1.015625 1.359375 -1.113281 1.328125 -1.1875 C 1.304688 -1.269531 1.269531 -1.328125 1.21875 -1.359375 C 1.164062 -1.398438 1.097656 -1.421875 1.015625 -1.421875 C 0.878906 -1.421875 0.78125 -1.375 0.71875 -1.28125 C 0.664062 -1.195312 0.640625 -1.066406 0.640625 -0.890625 Z M 0.640625 -0.890625 "/></g></g></g><g fill="#020bb5" fill-opacity="1"><g transform="translate(14.298756, 3.844828)"><g><path d="M 0.734375 0 L 0.25 0 L 0.25 -2.484375 L 0.734375 -2.484375 Z M 0.734375 0 "/></g></g></g><g fill="#020bb5" fill-opacity="1"><g transform="translate(15.550993, 3.844828)"><g><path d="M 1.890625 -1.78125 L 1.890625 0 L 1.515625 0 L 1.453125 -0.234375 L 1.421875 -0.234375 C 1.390625 -0.171875 1.34375 -0.117188 1.28125 -0.078125 C 1.226562 -0.0351562 1.164062 -0.0078125 1.09375 0 C 1.019531 0.0195312 0.945312 0.03125 0.875 0.03125 C 0.75 0.03125 0.640625 0.0078125 0.546875 -0.03125 C 0.453125 -0.0820312 0.378906 -0.15625 0.328125 -0.25 C 0.273438 -0.34375 0.25 -0.46875 0.25 -0.625 L 0.25 -1.78125 L 0.734375 -1.78125 L 0.734375 -0.734375 C 0.734375 -0.609375 0.753906 -0.515625 0.796875 -0.453125 C 0.847656 -0.390625 0.921875 -0.359375 1.015625 -0.359375 C 1.117188 -0.359375 1.195312 -0.378906 1.25 -0.421875 C 1.3125 -0.460938 1.351562 -0.523438 1.375 -0.609375 C 1.394531 -0.703125 1.40625 -0.8125 1.40625 -0.9375 L 1.40625 -1.78125 Z M 1.890625 -1.78125 "/></g></g></g><g fill="#020bb5" fill-opacity="1"><g transform="translate(17.953598, 3.844828)"><g><path d="M 1 -0.359375 C 1.050781 -0.359375 1.101562 -0.363281 1.15625 -0.375 C 1.207031 -0.382812 1.257812 -0.394531 1.3125 -0.40625 L 1.3125 -0.046875 C 1.257812 -0.0234375 1.191406 -0.0078125 1.109375 0 C 1.035156 0.0195312 0.953125 0.03125 0.859375 0.03125 C 0.753906 0.03125 0.660156 0.015625 0.578125 -0.015625 C 0.492188 -0.0546875 0.425781 -0.117188 0.375 -0.203125 C 0.332031 -0.285156 0.3125 -0.40625 0.3125 -0.5625 L 0.3125 -1.421875 L 0.078125 -1.421875 L 0.078125 -1.625 L 0.34375 -1.78125 L 0.484375 -2.15625 L 0.796875 -2.15625 L 0.796875 -1.78125 L 1.296875 -1.78125 L 1.296875 -1.421875 L 0.796875 -1.421875 L 0.796875 -0.5625 C 0.796875 -0.488281 0.8125 -0.4375 0.84375 -0.40625 C 0.882812 -0.375 0.9375 -0.359375 1 -0.359375 Z M 1 -0.359375 "/></g></g></g><g fill="#020bb5" fill-opacity="1"><g transform="translate(19.627052, 3.844828)"><g><path d="M 0.734375 -1.78125 L 0.734375 0 L 0.25 0 L 0.25 -1.78125 Z M 0.5 -2.484375 C 0.570312 -2.484375 0.632812 -2.460938 0.6875 -2.421875 C 0.738281 -2.390625 0.765625 -2.332031 0.765625 -2.25 C 0.765625 -2.15625 0.738281 -2.085938 0.6875 -2.046875 C 0.632812 -2.015625 0.570312 -2 0.5 -2 C 0.425781 -2 0.363281 -2.015625 0.3125 -2.046875 C 0.257812 -2.085938 0.234375 -2.15625 0.234375 -2.25 C 0.234375 -2.332031 0.257812 -2.390625 0.3125 -2.421875 C 0.363281 -2.460938 0.425781 -2.484375 0.5 -2.484375 Z M 0.5 -2.484375 "/></g></g></g><g fill="#020bb5" fill-opacity="1"><g transform="translate(20.879289, 3.844828)"><g><path d="M 1.875 -0.890625 C 1.875 -0.742188 1.851562 -0.613281 1.8125 -0.5 C 1.769531 -0.382812 1.710938 -0.285156 1.640625 -0.203125 C 1.566406 -0.128906 1.472656 -0.0703125 1.359375 -0.03125 C 1.253906 0.0078125 1.132812 0.03125 1 0.03125 C 0.875 0.03125 0.757812 0.0078125 0.65625 -0.03125 C 0.550781 -0.0703125 0.457031 -0.128906 0.375 -0.203125 C 0.300781 -0.285156 0.242188 -0.382812 0.203125 -0.5 C 0.160156 -0.613281 0.140625 -0.742188 0.140625 -0.890625 C 0.140625 -1.085938 0.175781 -1.253906 0.25 -1.390625 C 0.320312 -1.535156 0.421875 -1.640625 0.546875 -1.703125 C 0.679688 -1.773438 0.835938 -1.8125 1.015625 -1.8125 C 1.179688 -1.8125 1.328125 -1.773438 1.453125 -1.703125 C 1.585938 -1.640625 1.691406 -1.535156 1.765625 -1.390625 C 1.835938 -1.253906 1.875 -1.085938 1.875 -0.890625 Z M 0.640625 -0.890625 C 0.640625 -0.773438 0.648438 -0.675781 0.671875 -0.59375 C 0.703125 -0.519531 0.742188 -0.460938 0.796875 -0.421875 C 0.847656 -0.378906 0.921875 -0.359375 1.015625 -0.359375 C 1.097656 -0.359375 1.164062 -0.378906 1.21875 -0.421875 C 1.269531 -0.460938 1.304688 -0.519531 1.328125 -0.59375 C 1.359375 -0.675781 1.375 -0.773438 1.375 -0.890625 C 1.375 -1.015625 1.359375 -1.113281 1.328125 -1.1875 C 1.304688 -1.269531 1.269531 -1.328125 1.21875 -1.359375 C 1.164062 -1.398438 1.097656 -1.421875 1.015625 -1.421875 C 0.878906 -1.421875 0.78125 -1.375 0.71875 -1.28125 C 0.664062 -1.195312 0.640625 -1.066406 0.640625 -0.890625 Z M 0.640625 -0.890625 "/></g></g></g><g fill="#020bb5" fill-opacity="1"><g transform="translate(23.157444, 3.844828)"><g><path d="M 1.265625 -1.8125 C 1.453125 -1.8125 1.601562 -1.757812 1.71875 -1.65625 C 1.84375 -1.550781 1.90625 -1.382812 1.90625 -1.15625 L 1.90625 0 L 1.421875 0 L 1.421875 -1.046875 C 1.421875 -1.171875 1.394531 -1.265625 1.34375 -1.328125 C 1.300781 -1.390625 1.226562 -1.421875 1.125 -1.421875 C 0.976562 -1.421875 0.875 -1.367188 0.8125 -1.265625 C 0.757812 -1.171875 0.734375 -1.03125 0.734375 -0.84375 L 0.734375 0 L 0.25 0 L 0.25 -1.78125 L 0.625 -1.78125 L 0.6875 -1.546875 L 0.71875 -1.546875 C 0.757812 -1.609375 0.804688 -1.660156 0.859375 -1.703125 C 0.921875 -1.742188 0.984375 -1.769531 1.046875 -1.78125 C 1.117188 -1.800781 1.191406 -1.8125 1.265625 -1.8125 Z M 1.265625 -1.8125 "/></g></g></g><g clip-path="url(#0299cbaced)"><g fill="#020bb5" fill-opacity="1"><g transform="translate(25.56005, 3.844828)"><g><path d="M 1.5 -0.53125 C 1.5 -0.40625 1.46875 -0.300781 1.40625 -0.21875 C 1.351562 -0.132812 1.269531 -0.0703125 1.15625 -0.03125 C 1.039062 0.0078125 0.898438 0.03125 0.734375 0.03125 C 0.609375 0.03125 0.5 0.0195312 0.40625 0 C 0.320312 -0.0078125 0.238281 -0.0351562 0.15625 -0.078125 L 0.15625 -0.46875 C 0.25 -0.425781 0.347656 -0.390625 0.453125 -0.359375 C 0.566406 -0.335938 0.664062 -0.328125 0.75 -0.328125 C 0.84375 -0.328125 0.910156 -0.335938 0.953125 -0.359375 C 0.992188 -0.390625 1.015625 -0.429688 1.015625 -0.484375 C 1.015625 -0.503906 1.003906 -0.523438 0.984375 -0.546875 C 0.972656 -0.578125 0.941406 -0.609375 0.890625 -0.640625 C 0.835938 -0.671875 0.753906 -0.707031 0.640625 -0.75 C 0.523438 -0.800781 0.429688 -0.847656 0.359375 -0.890625 C 0.285156 -0.941406 0.226562 -1 0.1875 -1.0625 C 0.15625 -1.132812 0.140625 -1.21875 0.140625 -1.3125 C 0.140625 -1.476562 0.203125 -1.601562 0.328125 -1.6875 C 0.460938 -1.769531 0.640625 -1.8125 0.859375 -1.8125 C 0.960938 -1.8125 1.0625 -1.800781 1.15625 -1.78125 C 1.257812 -1.757812 1.367188 -1.722656 1.484375 -1.671875 L 1.328125 -1.328125 C 1.242188 -1.359375 1.160156 -1.382812 1.078125 -1.40625 C 1.003906 -1.4375 0.925781 -1.453125 0.84375 -1.453125 C 0.769531 -1.453125 0.710938 -1.441406 0.671875 -1.421875 C 0.640625 -1.398438 0.625 -1.375 0.625 -1.34375 C 0.625 -1.3125 0.632812 -1.285156 0.65625 -1.265625 C 0.675781 -1.242188 0.710938 -1.21875 0.765625 -1.1875 C 0.816406 -1.15625 0.894531 -1.117188 1 -1.078125 C 1.101562 -1.035156 1.191406 -0.992188 1.265625 -0.953125 C 1.335938 -0.910156 1.394531 -0.851562 1.4375 -0.78125 C 1.476562 -0.71875 1.5 -0.632812 1.5 -0.53125 Z M 1.5 -0.53125 "/></g></g></g></g></g></g></g></g></g></g></g></g></g></svg>